<?xml version="1.0" encoding="UTF-8" standalone="no"?>
<!-- Created with Inkscape (http://www.inkscape.org/) -->

<svg
   xmlns:dc="http://purl.org/dc/elements/1.1/"
   xmlns:cc="http://creativecommons.org/ns#"
   xmlns:rdf="http://www.w3.org/1999/02/22-rdf-syntax-ns#"
   xmlns:svg="http://www.w3.org/2000/svg"
   xmlns="http://www.w3.org/2000/svg"
   xmlns:sodipodi="http://sodipodi.sourceforge.net/DTD/sodipodi-0.dtd"
   xmlns:inkscape="http://www.inkscape.org/namespaces/inkscape"
   id="svg2"
   version="1.1"
   inkscape:version="0.91 r13725"
   width="377.44983"
   height="377.44983"
   viewBox="0 0 377.44983 377.44983"
   sodipodi:docname="euphonia-circle.svg">
  <metadata
     id="metadata8">
    <rdf:RDF>
      <cc:Work
         rdf:about="">
        <dc:format>image/svg+xml</dc:format>
        <dc:type
           rdf:resource="http://purl.org/dc/dcmitype/StillImage" />
        <dc:title></dc:title>
      </cc:Work>
    </rdf:RDF>
  </metadata>
  <defs
     id="defs6" />
  <sodipodi:namedview
     pagecolor="#ffffff"
     bordercolor="#666666"
     borderopacity="1"
     objecttolerance="10"
     gridtolerance="10"
     guidetolerance="10"
     inkscape:pageopacity="0"
     inkscape:pageshadow="2"
     inkscape:window-width="1920"
     inkscape:window-height="1032"
     id="namedview4"
     showgrid="false"
     inkscape:snap-page="true"
     inkscape:snap-center="true"
     inkscape:snap-object-midpoints="true"
     fit-margin-top="0"
     fit-margin-left="0"
     fit-margin-right="0"
     fit-margin-bottom="0"
     inkscape:zoom="0.89001174"
     inkscape:cx="184.25396"
     inkscape:cy="285.12032"
     inkscape:window-x="0"
     inkscape:window-y="0"
     inkscape:window-maximized="1"
     inkscape:current-layer="svg2" />
  <g
     id="g4138"
     transform="translate(-210.15262,-4.6625824)">
    <circle
       style="opacity:1;fill:#fcfcfa;fill-opacity:1;fill-rule:nonzero;stroke:none;stroke-width:1.07327402;stroke-opacity:1"
       id="path4271"
       cx="398.87753"
       cy="193.3875"
       r="188.72491" />
    <path
       style="fill:#ddd2a5"
       d="m 366.62021,378.65937 c -32.52911,-4.85976 -62.71285,-20.88019 -88.6561,-40.54425 -29.7899,-24.42328 -50.91811,-58.96898 -60.371,-96.03172 -9.36083,-33.31976 -8.08129,-69.51354 0.52185,-102.9277 C 232.71489,85.663062 275.30119,43.656093 324.40993,20.240033 353.35419,5.8005391 387.07558,4.8138518 418.77052,6.4239593 504.39803,11.792295 578.55234,86.460756 584.70438,171.79498 c 3.09647,25.79314 1.56509,52.20812 -7.87356,76.61308 -8.95163,31.32474 -24.80481,61.23139 -49.84765,82.64624 -35.11104,34.22633 -84.65236,51.77535 -133.44052,49.29205 -8.9916,-0.14925 -17.99447,-0.56689 -26.92244,-1.68698 z m 104.34053,-40.73695 c 9.27254,-4.08151 25.62888,-21.83679 4.98363,-19.4943 -10.38701,1.24199 -30.06623,20.60692 -22.6911,27.11197 6.17079,-1.80995 12.14194,-4.39894 17.70747,-7.61767 z m -16.19791,-16.76356 c 19.1004,-12.85201 -18.7619,-10.76303 -8.36985,4.34491 3.216,-0.5115 5.68828,-2.73293 8.36985,-4.34491 z M 308.73317,240.79901 c -7.59213,-6.59141 -28.10229,-26.58172 -33.92484,-14.73462 11.00242,3.96202 24.1447,12.68758 33.92484,14.73462 z"
       id="path4154"
       inkscape:connector-curvature="0" />
    <path
       style="fill:#dd9628"
       d="m 379.98317,379.74927 c -20.70303,-3.05899 -42.66488,-6.85317 -60,-19.14937 5.66288,-4.8503 17.79498,-11.67238 3.68058,-16.52826 -10.40033,-0.76318 -24.5712,0.59909 -12.29562,10.78117 -17.27802,-4.30917 -33.59851,-17.54095 -46.28384,-30.89298 -14.46766,-14.03349 -25.54472,-31.2566 -33.7108,-49.51465 -9.30997,-10.66347 14.17858,-13.49478 2.99133,-17.87542 -13.26234,7.85865 -13.37914,-9.02524 -1.17624,-10.67514 -3.59022,-6.60959 -19.88801,-0.14858 -17.17171,-15.71558 -10.02413,-39.39358 -1.89807,-80.87423 13.70021,-117.63772 9.00128,-17.745061 20.94396,-35.088524 37.05372,-46.923417 6.57305,8.642667 12.7067,14.353313 23.87338,13.915764 4.39501,9.939208 -4.06684,22.940503 -0.67035,33.425483 -15.49839,10.28717 -21.76606,30.14804 -25.37788,48.10311 6.16551,14.51492 -7.51354,26.92177 -11.07451,38.0753 11.13765,-7.50335 26.35024,-17.1633 40.86831,-21.73728 6.4863,-14.58663 1.65366,-32.69582 8.81661,-48.21726 5.87728,-16.83662 15.33525,-34.714051 6.68187,-52.551307 -10.49276,-8.877417 -15.71006,-19.028636 -2.94983,-29.235016 5.10106,-7.894095 0.05,-19.695508 12.03429,-21.811993 13.50406,-7.923809 28.26127,-14.31438 44.16079,-14.46199 20.46581,-7.1392877 42.85664,-4.8793373 64.07037,-3.0600748 35.99307,5.4963388 70.43112,20.9962328 96.84267,46.3328648 25.43745,21.057891 42.86107,51.100606 51.26948,82.780776 4.27333,9.36724 -5.40087,16.68034 -7.55488,25.33163 -1.43192,7.29383 -6.82254,18.37047 1.64795,23.01109 14.67774,6.71311 23.51639,27.65422 9.55211,38.2364 -15.05732,-4.66542 -42.34071,-3.88579 -41.79092,17.58519 -1.43209,7.55395 -1.9648,14.98029 3.4194,21.1125 3.63768,12.09202 20.96445,21.17067 14.22334,33.98203 -16.91043,24.24226 -39.61566,44.71622 -64.85355,60.07758 -18.63375,10.10461 -39.23556,16.6548 -59.88953,20.99489 -17.78723,3.03217 -32.52397,2.38915 -50.08675,2.24169 l 0,-10e-6 z m 70.54362,-12.85043 c 12.32294,-13.69709 -15.3288,-11.70456 -7.10612,0.3574 l 3.62675,0.64641 3.47937,-1.00381 0,0 z m 10.05357,-20.86289 c 21.78069,-8.20285 38.54176,-25.09285 58.53213,-36.47537 2.4967,-13.96172 -27.10318,-9.89547 -36.8915,-15.62119 -17.11937,-5.70761 -0.57529,29.50731 -18.80882,18.97374 -5.38444,-7.26826 -24.04746,-5.70978 -19.679,6.03146 -4.79016,21.44518 29.95162,-10.53052 12.7186,10.51847 -5.69263,4.51115 -19.29283,30.90467 4.12859,16.57289 z M 438.73317,319.9929 c -3.16289,-6.50909 -2.54726,6.27485 0,0 z m -3.75,-19.22335 c -6.96026,-7.30845 -16.3159,-1.50582 -2.52363,0.96125 l 1.83117,-0.0806 0.69246,-0.88062 0,0 z m -82.5,-33.27665 c -9.33026,-6.43273 1.11296,5.66889 0,0 z m -7.83854,-2.63021 c -4.07208,-1.3775 -3.36155,2.32135 0,0 z m -70.01615,-7.40874 c 11.09809,-13.87179 33.26924,-11.10055 45.8926,-7.98903 -9.71101,-14.28949 -24.30951,-25.48002 -39.87276,-32.77971 -15.28064,-9.89764 -44.36626,27.49232 -15.44759,15.84481 5.91285,-5.52811 18.79981,1.12582 22.57777,4.19148 -8.96302,1.22484 -24.23747,21.43962 -14.84617,23.68977 l 1.69615,-2.95732 0,0 z m 35.83187,-31.14551 c -6.01848,-9.59569 -15.50912,-8.53558 -4.09628,0.48655 0.27163,1.54835 5.20715,2.14733 4.09628,-0.48655 z m 255.83513,-24.55697 c 6.19257,-14.59866 -22.54625,-11.28135 -5.17454,-0.19607 0.66832,3.13511 4.38225,3.48514 5.17454,0.19607 z M 463.43466,132.6536 c 6.69104,-8.99751 0.16207,-14.7446 -4.37407,-2.9543 -7.2306,8.07189 -0.83462,15.85699 4.37407,2.9543 z m 38.72971,-65.785697 c 2.96928,-22.664119 -36.44416,-5.025176 -14.23023,2.519141 4.35934,0.68535 14.57101,6.005483 14.23023,-2.519141 z M 381.98864,54.680403 C 393.8027,36.21617 361.5767,52.720485 378.67049,56.803757 l 2.11907,-0.766113 1.19908,-1.357241 z m -104.03687,11.25 c -11.1769,-32.453127 25.11702,7.726219 0,0 z"
       id="path4152"
       inkscape:connector-curvature="0" />
    <path
       style="fill:#9d9c5d"
       d="m 379.98317,379.74927 c -20.70303,-3.05899 -42.66488,-6.85317 -60,-19.14937 5.66288,-4.8503 17.79498,-11.67238 3.68058,-16.52826 -10.40033,-0.76318 -24.5712,0.59909 -12.29562,10.78117 -17.27802,-4.30917 -33.59851,-17.54095 -46.28384,-30.89298 -14.46766,-14.03349 -25.54472,-31.2566 -33.7108,-49.51465 -9.30997,-10.66347 14.17858,-13.49478 2.99133,-17.87542 -13.26234,7.85865 -13.37914,-9.02524 -1.17624,-10.67514 -3.59022,-6.60959 -19.88801,-0.14858 -17.17171,-15.71558 -10.02413,-39.39358 -1.89807,-80.87423 13.70021,-117.63772 9.00128,-17.745061 20.94396,-35.088524 37.05372,-46.923417 6.57305,8.642667 12.7067,14.353313 23.87338,13.915764 4.39501,9.939208 -4.06684,22.940503 -0.67035,33.425483 -15.49839,10.28717 -21.76606,30.14804 -25.37788,48.10311 6.16551,14.51492 -7.51354,26.92177 -11.07451,38.0753 11.14826,-7.64435 26.54659,-17.00598 41.00699,-21.96947 3.22356,-19.681 9.72099,13.75148 14.0102,19.45429 13.21073,27.19206 30.51834,53.65787 54.70793,72.2121 7.50861,-7.47898 26.55569,-6.24058 36.86108,0.94265 4.49671,-13.26844 14.20034,6.45135 24.77007,-0.38553 12.91041,4.78397 26.33199,-0.11929 40.68027,4.40125 -7.10135,-14.64159 -18.06212,-30.04453 -29.63358,-43.27935 -13.82642,-14.07262 -28.87758,-27.13706 -42.53301,-41.22487 -3.04782,-15.52132 13.09,-22.63533 3.25857,-36.97394 -3.75048,-18.97449 26.37189,-24.36361 15.23754,-43.00402 -9.69139,-24.167773 -34.67364,0.56529 -50.96616,-9.391986 -16.78706,-6.496389 -31.81652,-7.613296 -46.42853,3.824116 -0.10318,-14.502302 -5.4413,-32.282754 -16.43452,-42.912899 9.32696,-8.874518 9.6767,-23.484559 15.33805,-32.178538 15.38794,-8.744063 31.52507,-17.59368 49.73714,-17.528649 20.46581,-7.1392877 42.85664,-4.8793373 64.07037,-3.0600748 36.26161,5.5190538 70.90798,21.2524728 97.42816,46.8547178 10.34883,9.949515 32.30702,29.067064 29.84334,40.007376 -12.79548,6.992657 8.65195,0.07573 8.44176,9.443697 6.43811,12.59895 12.82327,26.75061 13.37018,40.79373 -6.19414,11.18301 -11.96581,22.96973 -11.59149,36.08074 8.5813,9.52439 26.01635,15.95394 20.33743,31.36384 -1.1241,22.04773 -28.40198,0.69093 -40.77557,13.07328 -8.05687,7.10056 -9.41896,21.5406 -6.79761,31.23181 5.94869,10.14283 10.95507,21.09035 19.32968,29.52955 -0.94485,18.73994 -20.42201,30.5274 -31.90911,43.64493 -20.9139,20.71244 -47.22854,35.24778 -75.67431,42.59715 -15.30946,4.97774 -34.20392,8.66112 -48.90558,6.37194 -6.17965,2.76701 -13.77886,0.87559 -20.31756,0.69387 z m 70.54362,-12.85043 c 12.32294,-13.69709 -15.3288,-11.70456 -7.10612,0.3574 l 3.62675,0.64641 3.47937,-1.00381 0,0 z m 10.05357,-20.86289 c 21.78069,-8.20285 38.54176,-25.09285 58.53213,-36.47537 2.4967,-13.96172 -27.10318,-9.89547 -36.8915,-15.62119 -17.11937,-5.70761 -0.57529,29.50731 -18.80882,18.97374 -5.38444,-7.26826 -24.04746,-5.70978 -19.679,6.03146 -4.79016,21.44518 29.95162,-10.53052 12.7186,10.51847 -5.69263,4.51115 -19.29283,30.90467 4.12859,16.57289 z M 438.73317,319.9929 c -3.16289,-6.50909 -2.54726,6.27485 0,0 z m -3.75,-19.22335 c -6.96026,-7.30845 -16.3159,-1.50582 -2.52363,0.96125 l 1.83117,-0.0806 0.69246,-0.88062 0,0 z m -82.5,-33.27665 c -9.33026,-6.43273 1.11296,5.66889 0,0 z m -7.83854,-2.63021 c -4.07208,-1.3775 -3.36155,2.32135 0,0 z m -70.01615,-7.40874 c 11.09809,-13.87179 33.26924,-11.10055 45.8926,-7.98903 -9.71101,-14.28949 -24.30951,-25.48002 -39.87276,-32.77971 -15.28064,-9.89764 -44.36626,27.49232 -15.44759,15.84481 5.91285,-5.52811 18.79981,1.12582 22.57777,4.19148 -8.96302,1.22484 -24.23747,21.43962 -14.84617,23.68977 l 1.69615,-2.95732 0,0 z m 35.83187,-31.14551 c -6.01848,-9.59569 -15.50912,-8.53558 -4.09628,0.48655 0.27163,1.54835 5.20715,2.14733 4.09628,-0.48655 z m -67.43356,-20.6596 c 8.4619,-7.46217 -15.77207,-26.37014 -11.68385,-5.1001 -0.88985,6.26423 7.54933,7.42743 11.68385,5.1001 z m 323.26869,-3.89736 c 6.19258,-14.59866 -22.54625,-11.28137 -5.17454,-0.19608 0.66833,3.13511 4.38223,3.48514 5.17454,0.19608 z m -97.20001,-58.7968 c 20.05987,-3.98149 7.80703,-22.6586 -2.8623,-19.31595 -10.55162,-1.93315 -15.77073,29.94079 2.8623,19.31595 z m 23.60177,-15.65551 c 9.65872,-22.50163 -18.86018,6.22458 0,0 z m 29.7316,-15.99081 c 14.2069,-17.632051 -22.47367,-5.79118 -6.51136,1.45813 2.19321,0.50928 4.90596,0.36363 6.51136,-1.45813 z M 408.15863,71.786261 c 11.95058,0.732469 24.73716,-2.025138 13.01512,-15.628501 -7.94876,-13.92609 -33.81571,-9.0543 -37.44058,-6.164852 -0.46331,-12.926803 -18.90292,7.645156 -1.8857,9.341288 5.20952,7.360342 17.81055,14.537649 26.31116,12.452065 z m 94.0531,-4.918358 c 2.54632,-23.044942 -36.43473,-4.99421 -14.27759,2.519141 4.39346,0.667412 14.50264,6.033607 14.27759,-2.519141 z M 421.54567,252.44626 c -9.11525,-9.93689 11.38412,-28.59226 6.80045,-6.84444 -0.95429,3.21548 -2.14108,16.0954 -6.80045,6.84444 z m -17.5625,-0.82836 c -5.35449,-16.47399 10.34623,4.85544 0,0 z M 277.95177,65.930403 c -11.1769,-32.453127 25.11702,7.726219 0,0 z"
       id="path4150"
       inkscape:connector-curvature="0" />
    <path
       style="fill:#a0a22d"
       d="m 375.60817,378.1179 c -11.73408,-2.92047 -34.29205,-5.26294 -39.16474,-12.42799 14.85478,-0.87722 -0.75735,-20.46982 0.275,-28.39571 -13.26153,6.80681 -32.43124,1.44327 -42.64384,4.60811 2.96363,8.85616 -18.47993,-9.10311 -22.22557,-13.25719 -13.23719,-12.29667 -29.39874,-26.49067 -22.92464,-45.58755 -4.35032,-3.68351 -24.06366,-2.39386 -11.35233,-10.76994 15.00829,-8.91298 0.12593,-26.04584 -6.5508,-34.02203 -18.77498,2.3421 -16.89397,-27.80311 -18.78911,-41.61959 -2.12071,-18.73511 4.04438,-36.37821 8.13712,-54.35236 6.14949,-20.0502 13.60367,-40.72569 27.82528,-56.519454 9.72639,1.196755 21.49656,3.425942 33.80532,0.530177 8.7651,18.877027 -14.29328,31.118587 -16.03725,48.679757 -5.23389,19.62304 -1.92891,42.05705 -15.27023,58.87115 -2.20996,23.19873 -18.49225,-21.47338 -19.01249,3.51147 -0.46103,8.87252 5.03374,8.81768 -4.84224,12.51213 -10.6488,15.65487 11.33379,11.12983 12.80562,-1.35197 -0.12257,-5.90482 7.02636,6.45252 14.79058,-3.42709 11.07624,-9.455 22.9721,-13.28257 31.03592,1.29128 12.45751,13.53105 -10.92168,-4.24565 -16.56203,6.54364 -13.58841,-0.36418 -36.36621,32.16625 -13.08607,29.93217 4.04357,3.39783 16.81843,-4.19872 10.56649,8.3853 -10.6534,11.01226 20.78059,41.73369 10.99786,16.28592 -1.17501,-10.42845 18.64033,-7.09569 25.11012,-15.4196 16.51447,0.64148 25.35486,16.28054 41.26274,17.54989 1.92789,11.19124 -31.58471,7.13447 -15.81018,18.4448 10.89326,-1.46531 9.94897,-15.74649 21.42559,-5.55753 4.64795,-6.90652 15.27905,-4.63863 16.44767,0.22452 -11.87764,-0.7878 -38.83,6.42148 -31.98313,21.36322 7.13937,-4.31219 31.27391,-15.27351 14.15194,-0.68487 -8.58528,-3.46934 -20.57723,19.62098 -7.57303,7.69806 9.55073,-9.83708 2.67593,20.22213 14.5654,21.96128 8.67076,6.80535 -5.76816,-13.14196 3.3318,-13.22535 -9.3949,-12.36657 0.8632,-29.92803 16.02398,-29.5776 25.54815,-4.44554 -11.19565,-14.52061 -12.67022,-20.87159 8.59733,-7.76359 26.90929,-7.68005 37.64239,0.37109 5.33393,-12.79586 12.8109,5.23614 23.42519,-0.77906 13.96387,5.17713 27.58285,0.22025 42.82167,4.75742 -7.10135,-14.64159 -18.06212,-30.04453 -29.63358,-43.27935 -13.82642,-14.07262 -28.87758,-27.13706 -42.53301,-41.22487 -3.04782,-15.52131 13.09001,-22.63533 3.25857,-36.97393 -3.75049,-18.97449 26.37188,-24.36361 15.23754,-43.00402 -9.69138,-24.167785 -34.67364,0.56529 -50.96616,-9.391994 -15.36725,-4.844839 -29.1942,-8.961808 -42.7993,1.536924 -4.23284,-5.828579 3.73557,-24.578319 -1.08769,-34.155204 13.40299,-13.59229 -4.05767,-31.920801 14.79926,-43.151893 3.65275,-11.097887 28.05198,-13.58818 11.88031,0.84443 -5.61071,6.805419 -25.06369,33.115129 -8.78464,31.71721 14.83775,-13.289618 20.03837,-35.426806 36.51172,-46.7572469 14.48502,-3.8448902 30.44821,-3.45545 46.13759,-2.6039418 27.8454,5.5821807 57.14663,11.2297567 80.63767,28.5844887 21.49253,15.296208 42.71567,32.778565 56.29404,55.725587 -1.9587,5.037201 -9.16184,8.056962 2.96139,8.4398 16.05224,12.32573 9.1083,32.16006 2.92309,47.72819 -4.80832,12.185 -12.99212,28.11046 -9.78597,37.76397 -18.28735,-6.61577 -27.71022,-27.10962 -46.1129,-32.95735 -18.45282,-3.10941 19.89247,16.34919 -2.71067,14.70261 -11.85636,1.1152 -16.12892,7.93833 -5.74371,16.23322 11.64525,1.38524 23.41635,-16.77849 35.90462,-2.35471 12.47091,4.67297 23.12289,28.11835 35.55212,22.65047 4.28185,-18.85897 27.12871,5.46911 13.70317,16.44934 -15.13588,-5.48183 -33.6341,-6.36727 -48.03219,1.37258 -15.84383,12.55762 0.8916,32.29105 7.81129,45.3462 9.29022,14.01353 19.78467,29.4323 3.05377,42.21802 -5.52755,14.51713 -19.82489,-0.0217 -24.23312,16.92122 -10.70736,18.03708 -29.79748,30.82534 -49.31711,37.65766 -9.22404,-2.3523 -17.69255,-18.45722 -1.12753,-18.64354 18.69228,-10.30704 35.79064,-23.2874 54.78656,-33.06886 2.35296,-17.97239 -29.28526,-13.19635 -41.13008,-19.81451 -11.15564,-2.49716 -17.68573,3.75256 -10.60845,13.90433 -1.93675,14.18914 -18.3989,-0.91024 -25.30706,-4.18485 -7.71768,-9.01661 -28.53905,-12.43778 -31.51186,0.56966 -10.67113,8.14945 11.38349,5.87078 15.22845,2.94817 10.46041,-0.35002 17.36935,23.58881 5.12797,10.17448 -5.29025,1.38998 -36.49947,3.70433 -18.84629,6.60648 3.07383,2.40723 4.20486,8.52658 11.18238,2.11621 4.88456,1.80036 14.16671,20.97541 12.2598,5.58367 -2.52051,-15.58329 12.31909,12.38318 5.22934,18.09644 0.58543,15.70721 -17.78115,10.06612 -17.88142,24.87453 -11.29241,12.39518 -24.87192,1.98417 -36.33269,-1.86119 10.13266,12.94899 -8.53394,7.49158 -15.945,6.98666 l 0,0 z m 6.25,-23.75 c -6.45313,-4.79471 -2.65243,4.38389 0,0 z m -8.125,-5 c -3.36565,-5.03748 -2.94582,4.86674 0,0 z m -71.96241,-16.50453 c 5.03874,-14.16271 -18.5071,-4.94923 -3.82637,2.59258 l 1.88053,-0.5334 1.94583,-2.05918 10e-6,0 z m 21.32446,-2.21675 c 6.49515,-20.34112 -23.83205,5.58542 -4.15101,4.80747 2.3785,-0.34515 3.24201,-3.02825 4.15101,-4.80747 z m 75.63795,-0.65372 c 2.68652,-5.27784 7.6086,2.14748 4.69795,-5.82295 5.03504,-16.16337 -14.29916,17.67053 -4.69795,5.82295 z m -140,-23.125 c -3.36565,-5.03748 -2.94582,4.86674 0,0 z m 122.5,-1.25 c -3.36565,-5.03748 -2.94582,4.86674 0,0 z m -88.41556,-7.31704 c -21.62956,-15.3273 8.1222,15.92933 0,0 z m 120.32363,-6.19155 c -4.05495,0.0597 -3.67195,4.7159 0,0 z m -90.65807,-0.86641 c -3.00667,-6.97268 -1.3702,6.6238 0,0 z m -26.25,-1.875 c -2.9936,-4.99395 -1.99353,4.64868 0,0 z m 130.73611,-1.875 c 7.92396,-1.89978 22.60975,-14.76301 6.17195,-6.90405 -8.28942,0.76773 -22.52539,14.23425 -6.17195,6.90405 z m -98.46167,-15.3125 c -2.82865,-9.96335 -10.28206,12.57665 0,0 z m -7.24937,-4.71771 c 2.71663,-9.63201 -14.71927,7.37438 0,0 z M 482.84843,163.04378 c 9.0882,-4.49255 11.61698,-10.52802 0.37477,-3.178 -10.34789,-1.12388 -6.06394,5.88703 -0.37477,3.178 z m -13.12427,-20.41963 c 13.38144,-0.83275 16.40577,-26.97902 3.38814,-22.68471 3.37313,-13.85442 5.22469,-37.296293 24.99587,-41.206618 21.62788,-6.047875 -4.0675,-34.921246 -18.36173,-20.564072 -24.85479,5.549218 8.46394,29.012095 -7.24487,38.457441 -7.95516,12.326309 -15.75109,24.779439 -23.37137,37.343709 5.53583,5.95435 11.59949,16.2558 20.59396,8.65425 z m 22.97308,-15.32499 c 9.65873,-22.50162 -18.86018,6.22461 0,0 z M 428.73317,113.1179 c -2.99359,-4.99395 -1.99353,4.64868 0,0 z m 93.69568,-1.80954 c 14.20687,-17.632053 -22.47367,-5.79118 -6.51137,1.45813 2.19321,0.50929 4.90596,0.36362 6.51137,-1.45813 z M 437.99706,103.022 c 10.06181,-16.76842 -13.50551,1.75359 -2.43294,2.52798 l 2.43294,-2.52798 0,0 z m -1.76389,-13.029097 c -3.47187,-8.600567 -2.57133,8.319408 0,0 z m -17.5,1.341634 c -5.07852,-6.775216 -27.26498,-7.965768 -11.02526,-0.691142 3.62981,0.159788 7.43828,1.378275 11.02526,0.691142 z M 408.15863,71.78626 c 11.95495,0.734379 24.73618,-2.028692 13.01322,-15.632485 C 408.2933,45.138632 386.29628,39.817444 370.40532,46.13341 c -3.15816,22.711363 21.26953,17.664713 35.44158,26.919999 l 1.29317,-0.345622 1.01856,-0.921526 0,-10e-7 z m -35.6946,-5.230857 c -4.3096,-3.86205 -1.78306,9.517656 0,0 z M 433.73317,373.9009 c 4.94436,-9.59227 14.02789,4.02117 0,0 z m 14.5176,-41.80226 c 4.79499,-9.83062 10.57476,-2.30286 0,0 z M 336.85817,296.8679 c 3.83308,-4.01898 0.39496,4.30718 0,0 z m 15.27096,-33.9682 c -8.51018,-4.26135 -14.1585,-20.00346 -2.27269,-5.44033 4.68138,4.13057 13.26873,13.40138 2.27269,5.44033 z m 69.41654,-10.45344 c -9.11525,-9.93689 11.38412,-28.59226 6.80045,-6.84444 -0.95429,3.21548 -2.14108,16.0954 -6.80045,6.84444 z m -17.5625,-0.82836 c -5.35449,-16.47399 10.34623,4.85544 0,0 z m -77.75,-17.51232 c -6.62995,-6.73048 -17.85713,-11.94605 -21.21003,-20.53792 0.26053,-5.25959 -0.28213,-27.70472 3.96225,-16.11561 7.22988,15.11247 16.34241,29.25775 25.79174,43.05092 -2.92778,-2.02429 -5.71485,-4.24042 -8.54396,-6.39739 z"
       id="path4148"
       inkscape:connector-curvature="0" />
    <path
       style="fill:#967435"
       d="m 375.60817,378.1179 c -11.73408,-2.92047 -34.29205,-5.26294 -39.16474,-12.42799 14.85478,-0.87722 -0.75735,-20.46982 0.275,-28.39571 -13.26153,6.80681 -32.43124,1.44327 -42.64384,4.60811 2.96363,8.85616 -18.47993,-9.10311 -22.22557,-13.25719 -13.23719,-12.29667 -29.39874,-26.49067 -22.92464,-45.58755 -4.35032,-3.68351 -24.06366,-2.39386 -11.35233,-10.76994 15.23721,-8.99641 -0.55433,-24.78067 -4.86171,-34.26365 -20.08892,7.25687 -9.20361,-17.88512 1.89894,-21.25184 9.44349,-10.55542 26.86474,-14.21652 39.69148,-21.97424 20.74195,20.86976 -24.86086,16.4125 -26.68929,35.88079 -9.67411,17.66668 13.88347,11.241 19.85094,13.65039 -6.86456,10.3728 2.80651,36.82968 11.90925,31.9407 -10.66686,-18.95989 13.0362,-14.86328 23.12448,-24.15125 16.51447,0.64148 25.35486,16.28054 41.26274,17.54989 1.92789,11.19124 -31.58471,7.13447 -15.81018,18.4448 10.89326,-1.46531 9.94897,-15.74649 21.42559,-5.55753 4.64795,-6.90652 15.27905,-4.63863 16.44767,0.22452 -11.87764,-0.7878 -38.83,6.42148 -31.98313,21.36322 7.13937,-4.31219 31.27391,-15.27351 14.15194,-0.68487 -11.07518,-2.42273 -19.13448,20.91524 -5.94359,5.86909 7.58841,-6.83632 -0.23184,21.16053 11.50893,22.02463 9.91696,11.24097 -2.42624,-11.07006 4.26858,-12.40029 -9.82865,-14.39029 4.31713,-29.09109 19.12259,-29.72833 18.82276,-1.21135 -13.55119,-23.11275 9.80096,-23.56497 8.52311,-4.2037 13.9512,10.21115 17.5996,-1.91587 8.27974,9.15551 23.72913,4.475 32.87937,8.62679 15.50818,-8.89975 18.19109,20.08799 0.9692,16.47852 -6.77926,9.69374 -19.70074,1.05414 -22.68525,13.78441 -10.48158,8.15175 11.47523,5.79321 15.30289,2.90808 10.46041,-0.35002 17.36935,23.58881 5.12797,10.17448 -5.29025,1.38998 -36.49947,3.70433 -18.84629,6.60648 3.07383,2.40723 4.20486,8.52658 11.18238,2.11621 4.88456,1.80036 14.16671,20.97541 12.2598,5.58367 -2.52051,-15.58329 12.31909,12.38318 5.22934,18.09644 0.58543,15.70721 -17.78115,10.06612 -17.88142,24.87453 -11.29241,12.39518 -24.87192,1.98417 -36.33269,-1.86119 10.13266,12.94899 -8.53394,7.49158 -15.945,6.98666 l 3e-5,0 z m 6.25,-23.75 c -6.45313,-4.79471 -2.65243,4.38389 0,0 z m -8.125,-5 c -3.36565,-5.03748 -2.94582,4.86674 0,0 z m -71.96241,-16.50453 c 5.03874,-14.16271 -18.5071,-4.94923 -3.82637,2.59258 l 1.88053,-0.5334 1.94583,-2.05918 10e-6,0 z m 21.32446,-2.21675 c 6.49515,-20.34112 -23.83205,5.58542 -4.15101,4.80747 2.3785,-0.34515 3.24201,-3.02825 4.15101,-4.80747 z m 75.63795,-0.65372 c 2.68652,-5.27784 7.6086,2.14748 4.69795,-5.82295 5.03504,-16.16337 -14.29916,17.67053 -4.69795,5.82295 z m -140,-23.125 c -3.36565,-5.03748 -2.94582,4.86674 0,0 z m 122.5,-1.25 c -3.36565,-5.03748 -2.94582,4.86674 0,0 z m -88.41556,-7.31704 c -21.62956,-15.3273 8.1222,15.92933 0,0 z m 120.32363,-6.19155 c -4.05495,0.0597 -3.67195,4.7159 0,0 z m -90.65807,-0.86641 c -3.00667,-6.97268 -1.3702,6.6238 0,0 z m -26.25,-1.875 c -2.9936,-4.99395 -1.99353,4.64868 0,0 z m 130.73611,-1.875 c 7.92396,-1.89978 22.60975,-14.76301 6.17195,-6.90405 -8.28942,0.76773 -22.52539,14.23425 -6.17195,6.90405 z m -98.46167,-15.3125 c -2.82865,-9.96335 -10.28206,12.57665 0,0 z m -7.24937,-4.71771 c 2.71663,-9.63201 -14.71927,7.37438 0,0 z M 433.73317,373.9009 c 4.94436,-9.59227 14.02789,4.02117 0,0 z m 30.63967,-14.50045 c -16.38287,-14.70963 16.6173,-14.98586 23.82921,-25.52775 8.24669,-11.57853 39.72829,-13.99221 35.30308,-28.98129 -6.76467,-4.49303 -17.824,-18.99218 -23.7336,-14.58585 17.40074,12.0653 -9.2361,6.08703 -12.52428,-1.17573 -9.06663,1.01926 -15.58688,-5.45572 -2.57658,-5.44713 10.53282,0.55885 18.82744,-1.69089 4.2844,-6.78694 -19.60541,-3.38266 -30.62822,-19.56396 -41.48353,-34.57111 -14.68802,-18.25067 -33.69304,-32.47176 -50.00309,-49.26191 -7.2979,-6.0002 -2.39911,-17.82679 3.13972,-23.2428 -2.15248,-12.15573 -8.08828,-34.59158 10.66061,-41.74244 14.33757,-13.52514 -9.46712,-37.893364 -25.14404,-28.728097 -17.52384,6.766327 -34.36666,-2.833743 -51.37626,-5.998396 -7.64483,2.356563 -23.31031,14.606013 -17.13977,-3.006679 3.89852,-17.960075 18.35699,-32.859691 32.79511,-43.471868 15.51259,-11.350661 35.54228,-8.603806 53.12977,-7.10556 7.18986,-15.293685 23.45812,-27.452079 40.78607,-26.197142 41.65337,7.386078 76.56019,35.824646 103.32639,67.266556 16.64194,20.071546 -25.84562,12.675952 -37.13133,18.999316 -11.6763,0.152498 -22.6297,9.47163 -30.2071,13.4147 -8.97441,-17.171122 8.00008,-27.432689 21.32693,-31.373797 19.54899,-16.150876 -5.98384,-45.430099 -24.63398,-28.053984 -7.76285,6.415716 -17.73356,3.190256 -26.89957,3.478697 -18.20517,3.08641 -32.08768,-7.433577 -48.60735,-11.829566 -13.46519,-2.99563 -41.34462,-6.487409 -28.20305,16.180428 13.75431,2.273356 28.83112,14.512596 45.20409,8.965795 9.11582,-1.019636 12.72482,12.65833 15.23271,19.306547 -5.69128,8.264373 -26.31132,10.95158 -8.22233,21.83551 9.30536,13.41332 21.84893,14.63528 30.35494,0.23993 16.43299,-11.08233 -6.15044,13.4204 -9.32058,17.35738 10.38034,10.90915 23.47675,35.3259 38.6161,31.94111 6.32083,-11.89712 28.9711,-2.88558 21.70264,5.56952 -11.37143,0.073 -24.94351,6.27939 -10.81667,16.70143 11.61514,0.91842 24.88969,-17.79371 35.01777,0.61992 9.67247,7.31793 28.82787,33.32191 37.67813,16.41285 0.24574,-9.69691 9.41496,0.58069 14.4736,1.65709 7.608,10.93052 -6.31831,19.58047 -17.77058,12.36576 -18.35915,-5.67569 -49.40435,9.06249 -35.89451,31.28096 7.09675,16.61151 18.87947,30.81509 25.43726,47.68439 -3.7971,8.17627 -13.53704,18.23147 -18.38281,16.68801 7.64281,13.32326 -13.87046,-0.86385 -14.9503,12.96354 -10.60562,19.5389 -30.52821,33.37199 -51.16602,40.58835 -3.28898,1.54068 -5.30407,-1.82817 -6.1112,-4.42975 z m 68.11033,-68.6299 c -4.36599,-5.27058 -8.77696,-30.93692 -13.66963,-23.20425 -3.28449,5.84062 7.04022,25.7633 13.66963,23.20425 z m -113.75,-199.436013 c -5.07852,-6.775216 -27.26498,-7.965768 -11.02526,-0.691142 3.62981,0.159788 7.43828,1.378275 11.02526,0.691142 z M 372.46403,66.555403 c -4.3096,-3.86205 -1.78306,9.517656 0,0 z m 75.78674,265.543237 c 4.79499,-9.83062 10.57476,-2.30286 0,0 z M 464.98317,311.9 c -11.37997,-4.63056 -27.95875,-13.14904 -6.72985,-18.218 11.73539,-6.39146 21.59762,23.41034 6.72985,18.218 z m -128.125,-15.0321 c 3.83308,-4.01898 0.39496,4.30718 0,0 z m 83.95834,-48.33334 c -2.83362,-7.46265 6.09756,2.95877 0,0 z M 308.42067,213.65294 c -8.17791,-5.23487 -0.74647,-22.26342 1.96885,-5.56271 0.90414,3.10956 8.36815,11.46874 -1.96885,5.56271 z M 545.26738,183.1389 c -12.39281,-10.47833 -34.99369,-23.51213 -36.49339,-37.06756 15.59054,-12.15238 30.7276,-28.13442 52.19169,-27.31673 17.2307,1.33252 -3.94496,27.71864 -4.17466,39.19074 -5.07402,8.40294 -9.99343,18.9748 -4.3665,27.54337 -2.58986,-0.0329 -4.83136,-1.43493 -7.15714,-2.34982 z m -295.53567,-4.79636 c -14.17345,-9.53039 -14.42626,-29.04525 -28.0868,-38.58952 3.97013,-15.36395 9.79269,-31.48321 20.84858,-43.098879 7.24592,4.416629 6.41561,18.760539 18.14972,22.101539 10.68958,7.16425 0.18752,18.25182 1.47284,28.25354 -4.50322,8.74543 0.69248,31.87011 -12.38434,31.33332 z m 15.80575,-63.31862 c -7.33736,-10.43671 9.51222,-40.163148 18.11816,-24.054573 2.02185,7.402285 -8.7388,37.964333 -18.11816,24.054573 z m 206.32071,1.84398 c 3.83306,-4.01898 0.39497,4.30718 0,0 z M 317.08056,75.121708 c -3.65424,-17.935835 7.16491,-2.065496 0,0 z m 4.1292,-27.690364 c -1.65272,-14.872873 13.13675,-31.688201 27.904,-33.025142 -4.37545,11.276951 -16.53924,29.332552 -26.71668,35.27565 l -1.18732,-2.250508 z m 89.18712,-27.697036 c -6.40929,-14.5488737 27.53551,-10.8141393 7.60652,-2.750625 -1.37552,1.23027 -5.79572,6.715754 -7.60652,2.750625 z"
       id="path4146"
       inkscape:connector-curvature="0" />
    <path
       style="fill:#75952d"
       d="m 378.73317,378.17454 c -11.7534,-4.38087 -44.43706,-4.35716 -17.2384,-16.21578 8.6101,-15.50345 -22.04897,3.17972 -16.89888,-13.26741 -10.41656,0.42946 0.33567,-20.92719 -14.10455,-11.12325 -10.30902,4.55683 -36.64192,9.10274 -27.36976,-9.38257 -9.30768,-13.61941 -10.56773,6.16402 -12.84581,11.79497 -13.58755,-2.23538 -21.93667,-18.15348 -32.33657,-26.75904 12.64296,-12.82382 -18.46525,-7.38918 -5.99497,-21.0795 6.4591,-9.03833 9.07271,-12.52379 -3.68102,-11.13531 -9.39118,1.01306 -22.93022,-5.67704 -7.1435,-9.37417 13.80664,-13.89477 -6.09065,-21.07423 -6.89635,-35.35061 -8.8521,2.97491 -14.74789,0.46925 -4.66575,-8.54964 14.36235,-9.7328 9.78593,20.31286 22.6881,22.4824 2.83163,11.56036 14.44681,-8.86783 12.04327,9.32206 -3.0573,10.73326 24.88061,37.38075 18.04638,15.72001 -7.02851,-11.11626 14.61688,-18.75594 22.48978,-21.50866 14.00815,7.08238 25.01111,10.98445 37.71018,16.98731 -4.72425,4.69716 -15.28354,9.53189 -14.38439,-0.96091 -11.10757,1.67537 -6.17637,8.14958 -2.18331,7.85957 -11.93453,9.38997 -3.72758,25.30253 -2.18468,37.34494 11.13275,-1.14075 -9.84938,-33.37796 9.35512,-26.83263 6.11804,-0.13083 -11.24992,25.1596 5.64545,15.03616 -0.43492,1.24132 -10.22391,18.30303 1.00201,8.68523 8.87965,-8.26474 3.9041,19.43478 15.39376,21.80624 10.80542,10.36598 -5.71907,-13.70228 4.49399,-13.70742 -15.52918,-22.17848 15.74057,-29.40685 29.36812,-36.12246 10.88178,-1.87129 14.09464,16.96962 21.33424,4.35033 7.53775,1.15887 17.41231,1.68213 21.34986,-2.86177 -10.66204,6.57003 -16.22892,22.76761 -28.95281,15.09153 2.59257,6.40585 6.16259,9.15824 -1.80898,12.33254 10.83373,-3.41468 23.07229,0.49315 28.70697,-7.61494 10.63924,0.79872 19.01301,22.10728 4.7284,9.92512 -8.89281,-2.58694 -33.69655,0.48802 -38.76307,14.87778 -1.43844,12.96826 15.68537,-2.69444 12.62021,-6.53656 4.27939,4.95008 15.09935,5.79913 11.89372,12.20956 8.85515,-16.93245 12.21246,4.08018 23.48477,4.60139 5.93308,12.52613 -9.77421,19.98505 -13.43447,19.42931 -0.51589,13.84374 -22.42209,22.57164 -30.55787,9.17618 -16.67244,-5.07038 -0.29128,15.87243 -16.70362,10.44896 l -2.18604,-0.25639 -2.01953,-0.84281 0,2.4e-4 z m 38.83217,-12.60062 c 6.81467,-9.62409 -25.71092,-1.38323 -4.57397,1.15502 l 2.34869,-0.27935 2.22528,-0.87575 0,8e-5 z m -39.14408,-4.01852 c -6.48176,-7.50968 -5.28265,6.80412 0,0 z m 14.69237,-0.94633 c -3.41352,-6.92336 -5.42632,-13.4566 -11.7385,-8.09625 -6.87865,-6.73327 -17.6566,-7.72046 -6.8973,1.27171 4.82144,2.95287 13.19145,9.2181 18.6358,6.82454 z m 22.86954,-3.99117 c 4.90397,-8.77503 -18.97822,-1.22043 -2.07228,1.32213 l 0.98795,-0.34797 1.08433,-0.97416 z m -11.625,-3.5 c -0.3299,-4.58416 -3.75203,4.21099 0,0 z m -33.125,-13.125 c -3.16289,-6.50909 -2.54726,6.27485 0,0 z m -50.37329,-4.83504 c 6.90235,-8.27261 5.13122,-24.15902 -6.29312,-10.36923 -6.02077,5.3787 -2.59562,15.6101 6.29312,10.36923 z m 58.9016,-8.70166 c -2.96845,-5.90579 -5.11698,8.51143 0,0 z m 4.98731,-8.26017 c -0.97412,-4.35511 -5.94613,5.19873 -0.86816,1.31933 l 0.86816,-1.31933 z M 397.48317,305.38 c -3.54829,-3.71364 -5.49923,7.28829 0,0 z m -101.25,-2.0573 c -1.60565,-10.40391 -18.14312,-12.65934 -6.67187,-1.24678 0.90339,1.36431 7.12789,7.04055 6.67187,1.24678 z m 85,2.2952 c -3.36565,-5.03748 -2.94582,4.86674 0,0 z m 31.90807,-13.50859 c -4.05495,0.0597 -3.67195,4.7159 0,0 z m -114.95515,-1.6175 c -3.57792,-14.55188 -9.00742,5.22047 0,0 l 0,0 z M 321.9363,267.2362 c 3.4858,-8.23248 -16.88929,5.46586 -2.2138,1.36508 l 2.2138,-1.36508 z m 112.03978,106.3149 c 7.75888,-6.75625 5.03937,6.08757 0,0 z m 32.85685,-13.4258 c -0.42728,-17.85753 26.71352,-28.37911 40.7229,-38.05819 20.05895,-3.16746 -7.23321,29.38489 -17.30704,32.67147 -6.31501,1.3817 -19.25933,15.24454 -23.41586,5.38672 z m 64.23273,-47.09436 c -18.28499,-22.96241 -42.12885,-40.35726 -65.59483,-57.53574 -21.48081,-19.8907 -43.30454,-39.69904 -62.9831,-61.3295 -8.23406,-14.41168 12.75561,-24.17583 -3.02712,-39.14232 -4.94076,-18.25942 18.75062,-23.09079 18.40973,-39.65695 -6.99832,-22.726055 17.13511,9.62059 25.52445,8.29497 6.07583,-6.66945 27.4628,-25.292735 13.69005,-5.69945 -23.68051,13.0117 5.71106,30.44493 16.89174,41.06231 10.06462,13.57888 25.45897,-16.92961 34.56338,3.63074 2.34379,8.82111 -31.02105,3.69793 -14.59341,18.74672 10.35488,10.54463 23.61404,-18.08912 34.35296,0.1233 10.88813,8.06236 26.73841,32.42989 39.63517,21.55236 -0.0409,-11.65322 8.1066,-4.05675 14.32923,-1.29605 8.39002,6.56289 -1.67343,21.84342 -12.70423,13.34431 -16.38407,-4.51439 -47.06763,1.23064 -42.54804,23.8786 6.51728,19.61552 20.164,35.89172 27.73055,55.02052 -13.61064,19.31051 -20.76422,-17.94066 -30.42296,-25.99272 -6.91978,-11.45782 -12.64981,7.93095 -4.54669,12.86826 5.60077,11.69218 16.48999,25.9876 16.50122,37.2176 -2.11032,-1.27866 -3.60439,-3.27303 -5.2081,-5.08696 z m -70.14499,-5.17029 c -15.32384,-6.14201 14.26409,-12.69584 6.76348,2.49863 -2.37663,-0.47656 -4.53508,-1.60456 -6.76348,-2.49863 z m -112.1875,-8.25485 c 5.49924,-7.28831 3.54828,3.71365 0,0 z m 147.72434,-3.38855 c -11.43359,-12.9647 23.44766,7.36916 0,0 z m -155.92293,-11.2641 c 14.20274,-7.75807 -4.40818,7.17142 0,0 z M 239.35135,217.64249 c -4.78581,-12.16389 13.03136,2.61721 0,0 z m 69.06932,-3.98955 c -7.74096,-3.14097 -1.15574,-21.29351 1.76728,-6.19518 2.57866,3.32136 5.8483,11.95298 -1.76728,6.19518 z m -51.44379,-2.55144 c 2.62205,-12.72504 13.13749,7.29817 0,0 z m 288.2905,-27.9626 c -12.39281,-10.47833 -34.99369,-23.51213 -36.49339,-37.06756 14.62584,-10.99109 28.1543,-26.39118 47.83417,-26.82315 22.86538,-6.221 1.49652,20.85805 2.90978,31.29281 -3.07905,11.55961 -14.83166,23.49455 -7.09342,34.94772 -2.58986,-0.0329 -4.83136,-1.43493 -7.15714,-2.34982 z m -295.53567,-4.79636 c -14.17345,-9.53039 -14.42626,-29.04525 -28.0868,-38.58952 3.97013,-15.36395 9.79269,-31.48321 20.84858,-43.098879 7.24592,4.416629 6.41561,18.760539 18.14972,22.101539 9.63479,14.91151 -2.9379,36.7029 -3.42526,54.44813 -0.52586,3.20437 -3.88808,7.82921 -7.48624,5.13873 z m 14.51096,-65.8648 c -2.75215,-9.64222 8.50538,-34.217902 15.7405,-18.536005 0.61977,6.045488 -10.89647,26.245125 -15.7405,18.536005 z m 213.76078,-3.55701 C 472.446,82.870111 508.48415,90.607077 508.5945,66.940145 508.76062,46.211999 484.57411,45.532249 472.30282,56.283469 c -7.36957,3.538091 -16.30211,0.251105 -24.32204,0.949267 -18.29952,4.055703 -30.53467,-9.538458 -47.03094,-13.017778 -15.02732,-3.565272 -41.5924,-1.976488 -26.56082,18.902945 12.88644,2.182984 27.49669,16.72463 42.73115,10.467405 17.79474,-0.196974 22.37703,28.640962 0.8572,23.955362 -18.11825,-9.660237 -37.26325,8.38574 -55.26926,0.100515 -15.65722,-0.0971 -31.41634,-12.038835 -44.56427,1.072736 -4.54762,-19.065291 13.79574,-33.112219 24.41187,-46.414854 14.44411,-12.640037 34.13179,-16.283174 52.70615,-13.171002 15.52382,3.667331 17.46211,-22.905016 34.72131,-23.558485 17.57284,-6.2434804 36.02699,3.621008 51.85924,10.83706 27.09965,15.012054 52.58507,34.951646 70.03499,60.783918 -14.13586,10.425133 -38.89264,4.263497 -55.9871,13.154952 -5.89846,0.27856 -13.84133,10.59355 -17.88685,8.57522 z M 418.73317,91.088159 c -6.12802,-6.972464 -27.57043,-7.405958 -10.13694,0.07023 3.36993,0.187905 6.77487,0.299822 10.13694,-0.07023 z m -46.25,-23.669027 c -3.4792,-6.300225 -2.36935,8.034101 0,0 z m -55.40261,7.702576 c -3.65424,-17.935835 7.16491,-2.065496 0,0 z m 4.66628,-25.933944 c -2.76689,-15.184723 12.65326,-35.20041 28.23633,-34.170021 -7.83657,10.678828 -17.05501,31.364935 -28.23633,34.170021 z m 88.65004,-29.453456 c -6.40929,-14.5488737 27.53551,-10.8141393 7.60652,-2.750625 -1.37552,1.23027 -5.79572,6.715754 -7.60652,2.750625 z"
       id="path4144"
       inkscape:connector-curvature="0" />
    <path
       style="fill:#5f5d2e"
       d="m 378.73317,378.17454 c -11.7534,-4.38087 -44.43706,-4.35716 -17.2384,-16.21578 8.55259,-15.49188 -21.75999,3.13602 -17.0094,-13.15234 -6.65286,-1.48228 -7.26939,-19.28223 -4.61192,-21.44217 12.75565,-1.28928 7.64413,31.10279 16.98479,12.22697 7.12326,-6.63326 -6.81424,-16.57761 2.8151,-19.62444 -15.52918,-22.17848 15.74056,-29.40685 29.36812,-36.12246 10.88178,-1.87129 14.09463,16.96962 21.33424,4.35033 7.53775,1.15887 17.41231,1.68213 21.34986,-2.86177 -10.66204,6.57003 -16.22892,22.76761 -28.95281,15.09153 2.59256,6.40585 6.1626,9.15824 -1.80899,12.33254 10.83373,-3.41468 23.0723,0.49315 28.70698,-7.61494 10.63924,0.79872 19.013,22.10727 4.7284,9.92512 -8.89281,-2.58694 -33.69655,0.48802 -38.76307,14.87778 -1.43844,12.96826 15.68536,-2.69444 12.62021,-6.53656 4.27939,4.95007 15.09934,5.79914 11.89372,12.20956 8.85514,-16.93245 12.21246,4.08018 23.48477,4.60139 5.93369,12.52616 -9.77444,19.985 -13.43447,19.42931 -0.51589,13.84373 -22.4221,22.57165 -30.55788,9.17618 -16.67239,-5.07038 -0.29132,15.87243 -16.70365,10.44896 l -2.18604,-0.25639 -2.01953,-0.84281 -3e-5,-1e-5 z m 38.83217,-12.60062 c 6.81467,-9.62409 -25.71092,-1.38323 -4.57397,1.15502 l 2.34869,-0.27935 2.22528,-0.87575 0,8e-5 z m -39.14408,-4.01852 c -6.48176,-7.50968 -5.28265,6.80412 0,0 z m 14.69237,-0.94633 c -3.41352,-6.92336 -5.42632,-13.4566 -11.7385,-8.09625 -4.96443,-6.7383 -26.81117,-10.016 -11.05552,-1.04851 6.37814,3.39235 15.9641,11.41466 22.79402,9.14476 z m 22.86954,-3.99117 c 4.90397,-8.77503 -18.97822,-1.22043 -2.07228,1.32213 l 0.98795,-0.34797 1.08433,-0.97416 z m -11.625,-3.5 c -0.3299,-4.58416 -3.75203,4.21099 0,0 z m -33.125,-13.125 c -3.16289,-6.50909 -2.54726,6.27485 0,0 z m 8.52831,-13.5367 c -2.96844,-5.90581 -5.11698,8.51143 0,0 z m 4.98731,-8.26018 c -0.97411,-4.35511 -5.94614,5.19872 -0.86816,1.31934 l 0.86816,-1.31934 z M 397.48317,305.38 c -3.54829,-3.71364 -5.49923,7.28829 0,0 z m -16.25,0.2379 c -3.36565,-5.03748 -2.94582,4.86674 0,0 z m 31.90807,-13.50859 c -4.05495,0.0597 -3.67195,4.7159 0,0 z m 61.37318,65.0114 c 1.52074,-16.47516 18.32351,-25.79335 31.4905,-33.1088 17.99151,-5.20537 -14.46749,31.78103 -24.02412,33.25773 -2.2322,0.4512 -5.51162,2.01645 -7.46638,-0.14893 z M 302.83617,340.05265 c 0.96743,-5.43282 -1.92453,-25.49346 -10.12295,-11.66775 3.84337,21.84673 -18.56123,6.42504 -22.20482,-3.90769 -9.4532,-3.00897 -14.87358,-11.41592 -10.0531,-19.5102 -20.10783,0.36127 -3.52724,-18.04854 -3.60645,-24.06542 -7.95963,1.92818 -15.61408,-2.49601 -22.98419,-2.00025 -0.0906,-6.85719 22.42526,-15.83373 8.62173,-26.0378 -5.50296,-6.99914 -5.79334,-22.74306 -18.9361,-15.56933 2.38635,-13.32265 17.50867,-16.56705 18.1901,-1.24326 -3.50999,12.19053 10.69984,11.33769 14.56083,18.80254 12.75786,-12.53387 4.77845,22.52376 19.69814,25.51622 13.19433,13.02064 4.23382,-7.54345 4.95704,-13.38264 11.45359,-6.38117 22.69124,-20.986 35.42467,-7.16499 8.85792,2.98538 21.73159,7.40699 24.90757,12.30394 -6.22766,4.20503 -13.42908,7.03554 -13.13771,-2.35158 -11.10814,1.67482 -6.17549,8.15042 -2.1838,7.8591 -14.21846,10.50618 -0.68317,29.13026 -3.99594,41.85973 -14.11774,2.31124 -11.80536,25.58264 1.37248,13.5597 8.96911,-12.93699 -5.08154,-38.78835 8.00124,-44.60885 13.93378,-4.19158 -11.19198,16.00574 3.19087,17.68048 14.45759,-7.94734 -13.37615,9.6852 2.24656,14.41906 -2.65501,8.91165 1.59224,18.62537 -12.22659,18.98185 -6.73505,1.47754 -15.25578,3.90267 -21.71958,0.52714 z m -6.603,-36.72995 c -1.60565,-10.40391 -18.14312,-12.65934 -6.67187,-1.24678 0.90339,1.36431 7.12789,7.04055 6.67187,1.24678 z m 1.95292,-12.83089 c -1.78628,-12.60668 -10.50646,1.27283 -0.95719,1.06478 l 0.95719,-1.06478 z M 321.9363,267.2362 c 3.4858,-8.23248 -16.88929,5.46586 -2.2138,1.36508 l 2.2138,-1.36508 z m 18.04687,55.2567 c 3.16289,-6.50909 2.54726,6.27485 0,0 z m 191.08249,-9.46196 c -18.28499,-22.96241 -42.12885,-40.35726 -65.59483,-57.53574 -21.48081,-19.8907 -43.30454,-39.69904 -62.9831,-61.3295 -8.23406,-14.41168 12.75561,-24.17583 -3.02712,-39.14232 -4.94076,-18.25942 18.75062,-23.09079 18.40973,-39.65695 -8.66738,-20.076699 17.21149,6.18063 22.609,10.73106 24.48747,27.09837 53.56438,50.97231 70.62409,84.01846 13.98612,22.24567 22.61456,47.30129 36.71913,69.52438 10.09367,6.14975 5.3901,27.55855 -4.7381,18.45982 -7.89662,-10.39694 -14.51486,-29.06902 -24.03855,-33.74324 -8.33943,6.70367 0.26191,14.12545 3.21012,21.11044 4.83974,10.09987 14.54052,23.10815 14.01793,32.65055 -2.11036,-1.27867 -3.60406,-3.27281 -5.2083,-5.08696 z m -70.14499,-5.17029 c -15.32384,-6.14201 14.26409,-12.69584 6.76348,2.49863 -2.37663,-0.47656 -4.53508,-1.60456 -6.76348,-2.49863 z m -112.1875,-8.25485 c 5.49924,-7.28831 3.54828,3.71365 0,0 z m 147.72434,-3.38855 c -11.43359,-12.9647 23.44766,7.36916 0,0 z m -155.92293,-11.2641 c 14.20274,-7.75807 -4.40818,7.17142 0,0 z M 239.35135,217.64249 c -4.78581,-12.16389 13.03136,2.61721 0,0 z m 17.62553,-6.54099 c 2.62205,-12.72504 13.13749,7.29817 0,0 z m 276.1696,-51.20798 c -9.1566,-6.78304 -21.07184,-16.48901 -4.55437,-23.4042 8.95226,-4.9497 29.74457,-19.44521 35.77064,-9.7649 -5.43602,11.5309 -9.83557,50.15433 -27.72303,36.36248 l -1.7304,-1.54127 -1.76284,-1.65211 0,0 z M 270.98491,108.49678 c -4.06452,-8.37181 8.11109,-30.08089 8.65774,-11.725266 -0.87425,2.726537 -4.70986,16.082096 -8.65774,11.725266 z m 95.43542,-9.795162 c -16.66312,-0.497545 -33.91268,-13.429566 -47.95278,0.164654 -2.90569,-18.173639 14.58956,-33.445219 25.4862,-46.334792 14.98157,-12.67841 37.02938,-17.564852 55.42348,-10.281636 -7.75493,3.835321 -37.95336,-5.214029 -27.35907,16.180559 6.06216,10.795422 23.33497,10.382122 34.78597,17.305481 16.7818,-12.892169 40.45228,24.694336 10.87678,20.168053 -17.83961,-4.708705 -34.49192,6.656583 -51.26058,2.797681 z m 52.31284,-7.613459 c -6.12802,-6.972464 -27.57043,-7.405958 -10.13694,0.07023 3.36993,0.187905 6.77487,0.299822 10.13694,-0.07023 z m -46.25,-23.669027 c -3.4792,-6.300225 -2.36935,8.034101 0,0 z m 119.76551,29.106306 c 14.73918,-8.283258 27.82724,-28.785965 44.68515,-27.951707 8.52506,7.087911 24.15792,25.098477 2.66635,23.581681 -15.81834,2.240551 -32.21571,5.907039 -47.92313,5.319174 l 0.57163,-0.949148 0,0 z m -65.39051,-43.30716 c -19.58453,-0.764293 -17.692,-18.101163 -2.74339,-25.275612 13.72955,-10.87294 32.3425,-15.91949 48.13121,-6.133206 9.75399,4.056018 38.75549,16.084187 14.56248,22.647332 -10.42647,3.709953 -19.9406,11.854769 -31.5756,9.819176 -9.46112,-0.140048 -18.96264,0.02235 -28.3747,-1.05769 z m -101.875,-14.272997 c 2.30342,-8.393365 16.97651,-30.9254827 22.4446,-21.488188 -5.46006,7.408627 -14.33437,20.933941 -22.4446,21.488188 z"
       id="path4142"
       inkscape:connector-curvature="0" />
    <path
       style="fill:#202221"
       d="m 409.40944,370.70086 c 8.20592,-3.24293 22.4233,-6.63364 6.2368,0.37306 -1.84533,0.95496 -4.64408,1.28729 -6.2368,-0.37306 z m -25.67627,-6.33296 c 3.36565,-5.03748 2.94582,4.86674 0,0 z m 9.58334,-8.33334 c -3.53396,-6.82643 -8.77043,-12.5053 -4.48294,-18.42068 -5.80167,-5.17633 -10.2027,9.94178 -8.96196,-5.40996 0.71045,-13.011 31.60853,-21.81157 31.0787,-16.8181 -12.29957,3.29992 -26.16266,10.10757 -19.21041,22.73424 -1.9467,14.05779 10.26769,-8.52829 18.33983,-0.12816 11.41171,3.03561 19.72693,-5.22138 26.2109,4.97046 10.85471,9.38901 -27.27937,-1.08041 -34.8916,5.2673 -11.43011,-2.12248 0.014,11.15579 -8.08252,7.8049 z m -21.77084,-21.64929 c -1.89328,-11.47194 -11.3268,2.78791 -7.24783,-9.96731 0.91995,-14.23229 15.09087,16.22594 7.24783,9.96731 z m -41.5625,-1.96614 c 2.79202,-4.9723 1.39395,6.07289 0,0 z m -44.67294,-12.60111 c -7.13125,-4.77192 -14.77849,-41.06809 -3.10549,-21.76454 1.29915,4.73801 16.84849,25.27452 3.10549,21.76454 z m 92.17294,-6.11435 c 7.14783,-10.59831 3.98362,6.69463 0,0 z m 7.52508,-6.24098 c 5.8589,-4.6181 -2.04926,5.91421 0,0 z m 134.34992,-10.38321 c -24.1449,-23.99028 -53.45553,-41.96288 -77.54476,-66.07301 -12.80695,-13.8495 -32.03576,-23.94919 -38.18779,-42.62627 -3.3451,-10.10378 10.95648,2.57623 7.75734,-11.13089 1.18898,-4.75338 13.46193,5.46511 4.45687,-3.39703 -7.68477,-5.86402 -11.82207,-23.20396 -13.69866,-32.00595 7.51544,-9.17478 23.03266,-17.51733 15.67137,-31.71556 13.0583,5.06277 28.27392,25.9306 40.99204,38.10611 20.12718,19.24694 39.13071,39.97481 51.92605,64.98113 12.31919,21.97511 22.37609,45.14475 35.6558,66.59921 6.12104,8.61719 9.12733,20.18405 -2.97511,13.15109 -8.02635,-9.04792 -15.23845,-30.53307 -25.92815,-30.64401 -11.51484,10.97396 5.32778,22.44605 8.74103,33.8676 5.04528,8.47058 6.29031,17.01377 -2.47216,5.45591 l -2.12733,-2.20107 -2.26654,-2.36729 0,3e-5 z m -90,-120.12453 c -4.89126,-8.53309 -7.84442,8.29375 0,0 z M 303.3165,294.78456 c -3.70378,-11.46378 5.81061,-1.84945 0,0 z m 85.66667,-3.16666 c -5.37062,-12.64472 23.56618,5.753 2.47392,1.04452 l -2.47392,-1.04452 z M 246.83756,275.58456 c 2.13016,-10.83172 12.7365,-14.81999 14.85237,-1.26621 -4.5403,1.84768 -10.09266,2.72499 -14.85237,1.26621 z m 292.49421,-136.7064 c -5.64973,-8.81345 27.23233,-13.59317 9.19208,-1.62887 -2.31879,2.53136 -6.23349,4.73229 -9.19208,1.62887 z M 377.16857,97.088789 c -0.4904,-7.645435 4.91607,-18.52915 2.96765,-22.720886 -17.65852,-12.821554 34.894,-1.367677 17.82894,7.164705 9.01707,16.490219 -14.81354,13.64231 -20.79659,15.556181 z M 319.6027,92.805403 c 5.3766,-17.11357 17.10373,-32.702973 31.28331,-43.545423 8.58972,-5.965034 20.74225,-10.573614 13.68133,2.63919 8.99399,8.509586 -5.79848,25.12412 8.88825,32.313344 -8.12549,7.21136 -14.73358,16.565886 -27.9063,9.145696 -8.83184,-7.198954 -21.03198,-0.949179 -26.19037,2.116205 l 0.24378,-2.669012 0,0 z m 104.19997,-1.347098 c -0.83968,-11.131386 12.8904,7.735827 0,0 z m 86.1805,-0.605254 c 10.72378,-9.51319 27.66336,-30.666384 36.93638,-8.244524 3.3476,9.849384 -30.16892,7.448379 -36.93638,8.244524 z M 408.64494,77.599214 c 11.70795,-7.049134 1.76926,6.412632 0,0 z m 31.23749,-28.154729 c -12.62741,2.972645 -30.82414,-8.252725 -12.94436,-17.520481 15.12579,-11.458695 36.77608,-17.772769 52.79824,-4.175851 16.88741,8.777646 -16.98231,26.334331 -28.11869,22.294672 -3.91205,-0.193112 -7.82378,-0.39276 -11.73519,-0.59834 z"
       id="path4140"
       inkscape:connector-curvature="0" />
  </g>
</svg>
