<?xml version="1.0" encoding="UTF-8" standalone="no"?>
<!-- Created with Inkscape (http://www.inkscape.org/) -->

<svg
   xmlns:dc="http://purl.org/dc/elements/1.1/"
   xmlns:cc="http://creativecommons.org/ns#"
   xmlns:rdf="http://www.w3.org/1999/02/22-rdf-syntax-ns#"
   xmlns:svg="http://www.w3.org/2000/svg"
   xmlns="http://www.w3.org/2000/svg"
   xmlns:sodipodi="http://sodipodi.sourceforge.net/DTD/sodipodi-0.dtd"
   xmlns:inkscape="http://www.inkscape.org/namespaces/inkscape"
   id="svg2"
   version="1.1"
   inkscape:version="0.91 r13725"
   width="392.5"
   height="392.5"
   viewBox="0 0 392.5 392.5"
   sodipodi:docname="euphonia.svg">
  <metadata
     id="metadata8">
    <rdf:RDF>
      <cc:Work
         rdf:about="">
        <dc:format>image/svg+xml</dc:format>
        <dc:type
           rdf:resource="http://purl.org/dc/dcmitype/StillImage" />
        <dc:title></dc:title>
      </cc:Work>
    </rdf:RDF>
  </metadata>
  <defs
     id="defs6" />
  <sodipodi:namedview
     pagecolor="#ffffff"
     bordercolor="#666666"
     borderopacity="1"
     objecttolerance="10"
     gridtolerance="10"
     guidetolerance="10"
     inkscape:pageopacity="0"
     inkscape:pageshadow="2"
     inkscape:window-width="1920"
     inkscape:window-height="1032"
     id="namedview4"
     showgrid="false"
     inkscape:zoom="1.2025478"
     inkscape:cx="199.57627"
     inkscape:cy="196.25"
     inkscape:window-x="0"
     inkscape:window-y="0"
     inkscape:window-maximized="1"
     inkscape:current-layer="svg2" />
  <path
     style="fill:#9f9fb6"
     d="m -2.767277e-6,195.41843 c 0,-65.41667 0,-130.833332 0,-196.24999826 130.833332767277,0 261.666672767277,0 392.500002767277,0 0,130.83332826 0,261.66666826 0,392.49999826 -130.83333,0 -261.66667,0 -392.500002767277,0 0,-65.41667 0,-130.83333 0,-196.25 z"
     id="path4168"
     inkscape:connector-curvature="0" />
  <path
     style="fill:#d0ba13"
     d="m -2.767277e-6,195.43542 c 0,-65.42233 0,-130.844659 0,-196.26698826 130.833332767277,0 261.666672767277,0 392.500002767277,0 0,130.83332826 0,261.66666826 0,392.49999826 -32.70056,-0.39843 -65.52747,1.0358 -98.125,-1.25 -15.14792,1.14165 -38.95806,1.55926 -57.14147,1.19612 -16.14161,-0.55249 -36.0444,-0.0193 -48.87239,-2.07893 -8.14539,4.2036 -27.07145,1.76639 -33.80209,0.22891 -26.55826,3.45118 -54.03254,1.15095 -80.961721,1.88711 -24.532444,0.0169 -49.064888,0.0339 -73.597331767277,0.0508 0,-65.42234 0,-130.84468 0,-196.26702 z M 301.875,380.41843 c -13.30205,-3.73565 -7.54379,1.41874 0,0 z m 8.88374,-4.47724 c -4.23809,-17.64815 -12.87007,1.12378 0,0 z m -143.87099,-2.8125 c -2.1692,-4.85398 -11.56945,-6.29205 -13.61126,-10.04525 -4.56338,10.74102 9.27729,12.39004 13.61126,10.04525 z m 27.34967,-4.89776 c -8.22125,-16.45625 -2.2613,11.49303 0,0 z m -15.03226,-1.65084 c 0.63057,-7.64527 -6.84893,-31.86343 -10.85304,-20.3779 12.97676,5.89822 -8.86776,24.7294 10.04333,22.93651 l 0.80971,-2.55861 0,0 z m -50.0482,-4.16921 c -1.91646,-8.67562 -11.53755,-19.79889 -4.74281,-3.35557 0.18601,1.80159 2.8033,8.02133 4.74281,3.35557 z M 167.5,357.29343 c -5.23939,-16.56543 -12.14884,11.80974 -0.24215,3.31038 L 167.5,357.29343 Z m -53.75,-3.05123 c -4.6807,-7.85727 -4.30368,4.64232 0,0 z m -9.81004,-10.07377 c -1.46696,-3.54556 -11.522145,14.54783 -1.77053,1.19336 l 1.77053,-1.19336 0,0 z m 199.5902,-3.31032 c -8.99556,-11.90578 -21.84961,-3.30701 -31.81971,-15.09628 -7.52,-2.16158 -25.37396,-4.15779 -9.83338,5.23794 14.92593,3.00582 30.3246,10.08987 42.29895,19.45456 3.51632,4.57865 1.30748,-8.95021 -0.64586,-9.59622 z M 145,349.2422 c -4.68071,-7.85727 -4.30369,4.64232 0,0 z m 92.48132,-5.01607 c 8.32191,-11.37846 -14.2767,8.31177 0,0 z m -127.81986,-2.06291 c -4.07204,-1.3775 -3.36159,2.32135 0,0 z m 32.69925,-2.06247 c 9.50199,-4.16944 -7.8302,-13.18145 -13.05857,-2.87875 -15.77729,4.6464 11.24001,3.5465 13.05857,2.87875 z M 176.875,334.8334 c 10.9559,-5.88326 17.16468,-11.40517 31.42863,-8.28023 7.62458,-7.76233 17.06445,7.78597 18.92127,-5.06749 8.39769,0.31959 22.26796,9.28971 8.45604,-2.05427 -5.9037,-5.99513 -14.8189,-0.87281 -22.22004,-1.42156 -26.46779,5.13685 1.4603,-25.58031 11.29081,-31.29885 9.04303,-2.00549 19.54805,-24.29047 6.44998,-16.7905 -15.07182,3.98679 -23.72258,22.82135 -36.57753,33.54277 -9.97409,15.3934 -26.23585,23.93991 -38.37416,33.65591 6.53835,1.6476 14.19755,-0.38069 20.625,-2.28578 z m -23.42974,-6.60247 c -4.8518,-4.69043 -9.3906,7.00414 0,0 z m 143.82036,-81.48438 c -0.97411,-4.35511 -5.94614,5.19872 -0.86816,1.31934 l 0.86816,-1.31934 z M 359.375,199.24568 c -7.9755,-2.53291 -38.91962,-5.44186 -35.42081,-2.69046 14.87983,5.57249 30.98659,4.53209 46.67081,4.91437 -3.74998,-0.74132 -7.5001,-1.48252 -11.25,-2.22391 z m -40.625,-6.98204 c -9.74815,-12.76281 -5.2114,9.92508 0,0 z m -11.8236,-5.67837 c -0.008,-7.54401 -8.07845,4.62301 0,0 z M 190.51005,163.54343 c -9.23828,-10.0942 3.44747,9.53778 0,0 z m -44.38465,-2.1875 c -1.26056,-10.60489 -1.44332,13.20862 0,0 z m 63.15474,1.98397 c -7.29643,-8.65489 -4.27875,-18.56426 4.43365,-7.86239 1.51856,15.68297 22.41376,8.60833 28.40154,1.51231 5.2887,2.0223 11.58789,12.20382 8.64481,0.82423 7.06237,-3.21918 34.98476,10.86862 16.69781,-3.02083 -35.52368,-23.40544 -75.63475,-39.05664 -115.97413,-51.87479 -15.60955,-5.022289 -22.92385,-22.813394 -40.78381,-25.163481 -22.999372,-7.3655 -49.370251,-3.334032 -70.369196,8.048679 -9.802453,5.950653 22.706744,-1.820504 21.037834,-1.413495 4.873728,-9.400321 27.366207,2.667018 38.741512,0.469298 10.36568,11.272357 23.78845,0.948717 33.59153,13.724369 14.48042,5.0839 19.2786,23.30416 36.20111,24.87987 9.09912,-0.0836 17.23676,6.21994 16.92822,11.95476 6.74562,-8.7593 9.71546,7.80123 20.16825,0.2999 12.60059,-2.59443 0.36796,16.84066 -5.54828,6.43466 -13.28687,7.09838 -1.43838,23.46785 7.82915,21.18691 z m 8.37833,-22.62536 c -4.94192,-12.47242 25.2901,2.05526 6.35806,0.0757 -1.9219,-0.26511 -5.22781,3.43466 -6.35806,-0.0757 z M 116.25,87.844661 c 2.5413,-2.743312 2.83009,4.182828 0,0 z m 64.84055,73.840829 c 6.3816,-8.66668 -18.93531,4.81964 -3.01239,0.2219 l 3.01239,-0.2219 0,0 z m 5.79721,-8.77191 c 15.32909,-3.92219 -5.08356,-20.89808 -4.32372,-2.88494 -5.5954,4.21873 1.60926,4.80425 4.32372,2.88494 z m -14.70026,-4.07875 c 6.67595,-13.6585 -9.72143,-3.0319 -12.57707,-1.05567 3.21546,3.30349 8.90604,4.04863 12.57707,1.05567 z M 27.983109,142.83199 c 8.858707,1.53485 31.814558,-8.55052 11.578267,-5.70158 -12.675689,5.55128 -5.684629,-6.84015 2.731069,-6.76475 -6.305943,-18.1786 -40.3551632,25.50735 -14.309336,12.46633 z"
     id="path4166"
     inkscape:connector-curvature="0" />
  <path
     style="fill:#5663a3"
     d="m -2.767277e-6,195.43542 c 0,-65.42233 0,-130.844659 0,-196.26698826 130.833332767277,0 261.666672767277,0 392.500002767277,0 0,130.83332826 0,261.66666826 0,392.49999826 -32.70056,-0.39843 -65.52747,1.0358 -98.125,-1.25 -15.14792,1.14165 -38.95806,1.55926 -57.14147,1.19612 -16.14161,-0.55249 -36.0444,-0.0193 -48.87239,-2.07893 -8.14539,4.2036 -27.07145,1.76639 -33.80209,0.22891 -26.55826,3.45118 -54.03254,1.15095 -80.961721,1.88711 -24.532444,0.0169 -49.064888,0.0339 -73.597331767277,0.0508 0,-65.42234 0,-130.84468 0,-196.26702 z M 301.875,380.41843 c -13.30205,-3.73565 -7.54379,1.41874 0,0 z m 8.88374,-4.47724 c -4.23809,-17.64815 -12.87007,1.12378 0,0 z m -143.87099,-2.8125 c -2.1692,-4.85398 -11.56945,-6.29205 -13.61126,-10.04525 -4.56338,10.74102 9.27729,12.39004 13.61126,10.04525 z m 27.34967,-4.89776 c -8.22125,-16.45625 -2.2613,11.49303 0,0 z m -15.03226,-1.65084 c 0.63057,-7.64527 -6.84893,-31.86343 -10.85304,-20.3779 12.97676,5.89822 -8.86776,24.7294 10.04333,22.93651 l 0.80971,-2.55861 0,0 z m -50.0482,-4.16921 c -1.91646,-8.67562 -11.53755,-19.79889 -4.74281,-3.35557 0.18601,1.80159 2.8033,8.02133 4.74281,3.35557 z M 167.5,357.29343 c -5.23939,-16.56543 -12.14884,11.80974 -0.24215,3.31038 L 167.5,357.29343 Z m -53.75,-3.05123 c -4.6807,-7.85727 -4.30368,4.64232 0,0 z m -9.81004,-10.07377 c -1.46696,-3.54556 -11.522145,14.54783 -1.77053,1.19336 l 1.77053,-1.19336 0,0 z m 199.5902,-3.31032 c -8.99556,-11.90578 -21.84961,-3.30701 -31.81971,-15.09628 -7.52,-2.16158 -25.37396,-4.15779 -9.83338,5.23794 14.92593,3.00582 30.3246,10.08987 42.29895,19.45456 3.51632,4.57865 1.30748,-8.95021 -0.64586,-9.59622 z M 145,349.2422 c -4.68071,-7.85727 -4.30369,4.64232 0,0 z m 92.48132,-5.01607 c 8.32191,-11.37846 -14.2767,8.31177 0,0 z m -127.81986,-2.06291 c -4.07204,-1.3775 -3.36159,2.32135 0,0 z m 32.69925,-2.06247 c 9.50199,-4.16944 -7.8302,-13.18145 -13.05857,-2.87875 -15.77729,4.6464 11.24001,3.5465 13.05857,2.87875 z M 176.875,334.8334 c 10.9559,-5.88326 17.16468,-11.40517 31.42863,-8.28023 7.62458,-7.76233 17.06445,7.78597 18.92127,-5.06749 8.39769,0.31959 22.26796,9.28971 8.45604,-2.05427 -5.9037,-5.99513 -14.8189,-0.87281 -22.22004,-1.42156 -26.46779,5.13685 1.4603,-25.58031 11.29081,-31.29885 9.04303,-2.00549 19.54805,-24.29047 6.44998,-16.7905 -15.07182,3.98679 -23.72258,22.82135 -36.57753,33.54277 -9.97409,15.3934 -26.23585,23.93991 -38.37416,33.65591 6.53835,1.6476 14.19755,-0.38069 20.625,-2.28578 z m -23.42974,-6.60247 c -4.8518,-4.69043 -9.3906,7.00414 0,0 z M 253.75,266.04343 c -5.44058,-19.03079 22.94145,-2.78632 32.02982,-14.22333 11.05063,-1.62708 14.40956,-13.38049 20.95284,-20.04916 -7.72374,-8.18193 -14.95496,-11.58746 -18.64534,2.39749 -12.81086,-4.80663 -1.04229,-20.7282 -16.43021,-22.96347 -17.44275,-7.71177 -37.47571,-2.7431 -55.93543,-2.08992 -12.96498,3.5908 -24.89407,11.18561 -34.64547,11.10673 -10.31937,14.38421 31.70102,9.22822 26.65145,18.42071 9.2798,0.15041 17.83802,8.26376 17.83982,12.83812 8.84739,-0.97803 34.29662,20.36022 14.51945,8.75437 -1.229,7.42812 8.98228,9.7141 13.66307,5.80846 z m -96.90288,-50.51655 c 0.49087,-3.97015 -24.17482,-7.88442 -11.21626,-17.35844 -1.42209,-4.63561 2.24195,-31.08701 -0.54189,-37.75001 0.20315,1.14943 -8.92485,-16.17322 -14.8221,-3.45893 -13.07659,5.20554 -29.78944,31.89874 -9.98974,37.89376 7.00552,-3.16532 20.63806,1.89238 16.29495,10.19982 4.34481,6.37529 11.80358,13.865 20.27504,10.4738 z M 359.375,199.24568 c -7.9755,-2.53291 -38.91962,-5.44186 -35.42081,-2.69046 14.87983,5.57249 30.98659,4.53209 46.67081,4.91437 -3.74998,-0.74132 -7.5001,-1.48252 -11.25,-2.22391 z m -40.625,-6.98204 c -9.74815,-12.76281 -5.2114,9.92508 0,0 z m -11.8236,-5.67837 c -0.008,-7.54401 -8.07845,4.62301 0,0 z M 190.51005,163.54343 c -9.23828,-10.0942 3.44747,9.53778 0,0 z m 18.77009,-0.20353 c -7.29643,-8.65489 -4.27875,-18.56426 4.43365,-7.86239 1.51856,15.68297 22.41376,8.60833 28.40154,1.51231 5.2887,2.0223 11.58789,12.20382 8.64481,0.82423 7.06237,-3.21918 34.98476,10.86862 16.69781,-3.02083 C 231.93427,131.38778 191.8232,115.73658 151.48382,102.91843 135.87427,97.896141 128.55997,80.105036 110.70001,77.754949 88.503951,70.575108 63.044694,74.21006 42.569321,84.770031 29.236023,93.105873 14.225604,111.5306 21.753687,127.27801 c 11.27148,-5.17902 17.762589,-28.168155 31.99631,-21.66281 7.63413,21.16903 30.512761,-13.109555 7.762311,-17.928641 -1.763145,-15.973146 24.292061,-0.139093 34.109856,-3.513543 11.588006,7.975039 23.238996,4.688356 34.363206,11.058163 14.46912,7.766031 20.51038,19.552301 34.98553,28.080681 10.41727,-1.40432 22.37955,4.92791 21.86012,12.10657 6.74562,-8.7593 9.71546,7.80123 20.16825,0.2999 12.60059,-2.59443 0.36796,16.84066 -5.54828,6.43466 -13.28687,7.09838 -1.43838,23.46785 7.82915,21.18691 z m 8.37833,-22.62536 c -4.94192,-12.47242 25.2901,2.05526 6.35806,0.0757 -1.9219,-0.26511 -5.22781,3.43466 -6.35806,-0.0757 z M 66.249997,97.918432 c 3.365647,-5.037481 2.945819,4.866738 0,0 z M 116.25,87.844661 c 2.5413,-2.743312 2.83009,4.182828 0,0 z m 64.84055,73.840829 c 6.3816,-8.66668 -18.93531,4.81964 -3.01239,0.2219 l 3.01239,-0.2219 0,0 z m 5.79721,-8.77191 c 15.32909,-3.92219 -5.08356,-20.89808 -4.32372,-2.88494 -5.5954,4.21873 1.60926,4.80425 4.32372,2.88494 z m -14.70026,-4.07875 c 6.67595,-13.6585 -9.72143,-3.0319 -12.57707,-1.05567 3.21546,3.30349 8.90604,4.04863 12.57707,1.05567 z M 27.983109,142.83199 c 8.858707,1.53485 31.814558,-8.55052 11.578267,-5.70158 -12.675689,5.55128 -5.684629,-6.84015 2.731069,-6.76475 -6.305943,-18.1786 -40.3551632,25.50735 -14.309336,12.46633 z"
     id="path4164"
     inkscape:connector-curvature="0" />
  <path
     style="fill:#708c4c"
     d="m -2.767277e-6,195.43542 c 0,-65.42233 0,-130.844659 0,-196.26698826 130.833332767277,0 261.666672767277,0 392.500002767277,0 0,130.83332826 0,261.66666826 0,392.49999826 -32.70056,-0.39843 -65.52747,1.0358 -98.125,-1.25 -15.14792,1.14165 -38.95806,1.55926 -57.14147,1.19612 -16.14161,-0.55249 -36.0444,-0.0193 -48.87239,-2.07893 -8.14539,4.2036 -27.07145,1.76639 -33.80209,0.22891 -26.55826,3.45118 -54.03254,1.15095 -80.961721,1.88711 -24.532444,0.0169 -49.064888,0.0339 -73.597331767277,0.0508 0,-65.42234 0,-130.84468 0,-196.26702 z M 301.875,380.41843 c -13.30205,-3.73565 -7.54379,1.41874 0,0 z m 8.88374,-4.47724 c -4.23809,-17.64815 -12.87007,1.12378 0,0 z m -143.87099,-2.8125 c -2.1692,-4.85398 -11.56945,-6.29205 -13.61126,-10.04525 -4.56338,10.74102 9.27729,12.39004 13.61126,10.04525 z m 27.34967,-4.89776 c -8.22125,-16.45625 -2.2613,11.49303 0,0 z m -15.03226,-1.65084 c 0.63057,-7.64527 -6.84893,-31.86343 -10.85304,-20.3779 12.97676,5.89822 -8.86776,24.7294 10.04333,22.93651 l 0.80971,-2.55861 0,0 z m -50.0482,-4.16921 c -1.91646,-8.67562 -11.53755,-19.79889 -4.74281,-3.35557 0.18601,1.80159 2.8033,8.02133 4.74281,3.35557 z M 167.5,357.29343 c -5.23939,-16.56543 -12.14884,11.80974 -0.24215,3.31038 L 167.5,357.29343 Z m -64.52685,-8.125 c 5.98152,-4.09306 27.08333,-10.44663 7.92397,-7.5518 -11.645338,-4.10289 -24.45521,25.92729 -10.1407,8.92061 l 2.21673,-1.36881 0,0 z M 113.75,354.2422 c -4.6807,-7.85727 -4.30368,4.64232 0,0 z m 32.9194,-2.15983 c -3.98736,-12.89755 -9.79002,1.15433 0,0 z m 156.86076,-11.22426 c -8.99556,-11.90578 -21.8496,-3.30702 -31.81971,-15.09628 -7.52,-2.16158 -25.37396,-4.15779 -9.83338,5.23794 14.92593,3.00582 30.3246,10.08987 42.29895,19.45456 3.51632,4.57865 1.30748,-8.95021 -0.64586,-9.59622 z m -61.5774,0.68449 c -5.56452,-4.69204 -16.71208,11.61679 -2.09265,1.94761 l 2.09265,-1.94761 0,0 z m -98.42272,-0.45461 c 13.90319,0.73627 29.20736,-3.21433 42.89242,-9.92674 6.22717,-11.56786 30.91062,-1.26262 38.57754,-5.58977 2.51898,-11.2847 28.09451,8.90843 10.68094,-6.14007 -5.9037,-5.99513 -14.8189,-0.87281 -22.22004,-1.42156 -27.80312,4.34077 4.21845,-23.76976 12.3111,-31.98534 8.65754,-2.30558 17.99259,-23.68837 5.44609,-16.14716 -15.5843,3.86848 -24.31964,24.19113 -37.96928,35.03243 -8.62769,5.10753 -23.48322,32.98134 -31.57947,21.85159 2.17371,-17.62262 -25.00793,13.18439 -36.48039,11.7694 -12.95274,5.05124 17.85784,3.51649 18.34109,2.55722 z M 253.75,266.04343 c -5.44058,-19.03079 22.94145,-2.78632 32.02982,-14.22333 11.05063,-1.62708 14.40956,-13.38049 20.95284,-20.04916 -7.72374,-8.18193 -14.95496,-11.58746 -18.64534,2.39749 -12.81086,-4.80663 -1.04229,-20.7282 -16.43021,-22.96347 -17.44275,-7.71177 -37.47571,-2.7431 -55.93543,-2.08992 -12.96498,3.5908 -24.89407,11.18561 -34.64547,11.10673 -10.31937,14.38421 31.70102,9.22822 26.65145,18.42071 9.2798,0.15041 17.83802,8.26376 17.83982,12.83812 8.84739,-0.97803 34.29662,20.36022 14.51945,8.75437 -1.229,7.42812 8.98228,9.7141 13.66307,5.80846 z m 52.5,-47.5 c 4.09622,-8.69997 22.63802,-0.64443 22.03647,-8.25514 7.67958,-11.5175 37.3176,-0.60166 47.04313,-7.17169 -19.71297,-7.6537 -42.27934,-4.03392 -60.91742,-15.04129 -7.06757,-5.73501 -27.79497,-6.8677 -11.05351,2.34312 7.37199,3.7071 40.05704,11.23204 16.57023,14.69063 -10.65066,1.93291 -44.19789,4.10182 -18.61221,13.51472 0.90367,1.60919 4.87012,2.91201 4.93331,-0.0804 z m -149.40288,-3.01655 c 0.49087,-3.97015 -24.17482,-7.88442 -11.21626,-17.35844 -5.73117,-4.94378 6.8894,-4.14506 -1.23465,-12.47867 4.89974,-6.4216 -2.98934,-29.2112 6.60025,-12.82217 12.25696,1.69038 12.02362,20.88235 25.72037,13.93989 6.89298,5.78503 15.76572,7.993 6.84213,-1.62415 6.5898,-8.85127 22.57568,4.49511 30.35236,-6.27495 19.32603,2.46745 36.74636,-2.48879 55.81506,1.77213 9.16925,0.071 21.70606,5.61702 15.46082,-3.75808 16.1493,-4.47934 -19.95647,-21.96427 -27.74853,-28.5959 -30.30269,-18.14087 -63.37077,-31.20449 -96.69312,-42.68752 -20.25041,-9.007602 -36.26364,-27.23496 -59.25817,-30.238428 -20.038679,-3.28671 -41.839661,-0.03404 -59.663115,9.475982 -12.17518,8.980543 -29.120353,28.076536 -19.169086,42.784386 10.994288,-8.10941 18.21162,-30.095545 33.47438,-21.11642 6.554873,19.93355 27.496236,-16.064838 5.321245,-19.613234 16.100519,-3.726262 14.071715,25.187674 33.980857,17.360734 7.124969,0.93804 33.226819,6.80883 13.158849,8.37283 -18.987443,3.81804 16.26187,13.5308 21.51017,19.0223 13.22004,2.81561 20.7398,26.50057 13.73383,27.49465 -10.37019,-17.72089 -33.43092,13.13628 -32.96757,26.73291 1.77225,14.47001 25.77758,2.75793 25.86037,15.51142 -2.65028,6.77981 12.73269,18.21838 20.11981,14.10073 z M 116.25,104.79343 c -18.47514,-11.959046 18.56911,3.88743 0,0 z M 66.249997,97.918432 c 3.365647,-5.037481 2.945819,4.866738 0,0 z M 225,194.03469 c -10.25232,-3.80983 -6.64392,6.30057 0,0 z m 58.75,-3.67552 c -7.49964,-3.32211 -25.5757,0.57148 -7.46903,0.95832 2.48893,-0.14241 5.16365,0.30153 7.46903,-0.95832 z m -51.25,-2.44074 c -6.95073,-5.07778 -8.66378,4.87262 0,0 z m -69.86697,-1.875 c -12.47094,-9.97387 -9.82587,6.30137 0,0 z M 18.749997,147.72464 c 7.274639,-1.91111 33.184439,-11.58676 26.442354,0.19379 14.548067,-7.9651 0.865589,-17.55873 -11.984306,-10.31853 0.353105,-4.71282 19.454728,-5.0247 4.599071,-11.59236 -9.277811,-1.53138 -29.1399944,20.1174 -22.17913,23.51577 l 3.122011,-1.79867 0,0 z M 133.125,147.91843 c -3.77535,-5.146 -7.04802,4.7163 0,0 z M 82.161456,114.66322 c -4.072013,-1.37757 -3.361664,2.32112 0,0 z m 5.338541,-0.49479 c -1.866182,-3.95025 -2.821031,4.2931 0,0 z m -13.75,-1.25 c -1.866182,-3.95025 -2.821031,4.2931 0,0 z"
     id="path4162"
     inkscape:connector-curvature="0" />
  <path
     style="fill:#906c1e"
     d="m 82.857789,389.48093 c 5.753172,-12.59439 7.162371,-30.02864 12.854561,-39.73493 -6.400142,9.70215 8.17654,14.92807 4.74677,1.11668 14.42392,-12.86053 34.27735,-7.77615 50.82547,-9.77755 14.90008,1.90734 35.12122,-16.75622 48.11962,-1.73997 7.16473,17.31598 15.84844,13.2285 20.03483,-2.94304 1.11416,-8.74709 23.43838,-6.21184 8.54297,-13.7059 10.13967,-3.63277 18.01275,17.60943 24.36913,1.47311 5.23079,14.76539 17.94598,3.56973 27.43626,13.75 16.94401,4.39873 32.97927,17.3309 24.52902,35.60089 18.16822,10.07958 -1.08318,24.61046 -11.42756,16.0163 -11.53917,2.38197 -30.88163,1.81189 -46.10101,2.08582 -16.43605,-2.45205 -37.02851,5.00541 -50.96245,-4.54544 -1.39229,0.16039 -6.30284,8.6825 -8.41061,0.26971 -5.47314,8.9777 -28.57999,4.33736 -33.00321,0.60112 -19.22561,6.71825 -40.25369,2.5655 -60.272994,3.61178 -2.905008,-0.79475 -9.981679,1.31982 -11.280797,-2.07858 z M 303.125,380.31427 c -6.89484,-8.38897 -20.9375,5.36597 0,0 z m -116.25,-1.14584 c -6.45313,-4.79471 -2.65243,4.38389 0,0 z m -19.95751,-2.93573 c 9.47064,-7.59141 -19.75203,-9.55682 -5.88394,-15.15687 7.75452,3.08368 14.76609,12.32147 18.33473,14.78415 0.69619,-9.36669 1.56523,-38.76484 -12.8476,-31.41516 8.38845,1.60593 5.30477,24.12018 1.84658,11.59786 -6.69764,-18.30621 -27.86268,19.11457 -10.86726,18.75075 2.36701,-5.08394 3.14376,6.72359 9.41749,1.43927 z m 27.62037,-7.37677 c -5.08132,-18.26879 -6.37179,9.25502 0,0 z m -65.46572,-13.0675 c -8.17518,-19.363 -10.17657,9.66485 0.0381,7.61432 0.60959,-2.51212 0.35682,-5.1022 -0.0381,-7.61432 z m -14.6633,-0.42475 c -3.41051,-14.16573 -10.39166,3.95822 0,0 z m 32.8125,-7.85684 c -4.6402,-13.69021 -6.49703,15.68179 0,0 l 0,0 z m 94.73142,-5.96423 c -7.36625,-4.27561 -16.06197,12.19013 -1.92718,1.73734 l 1.92718,-1.73734 0,0 z m -50.07776,1.37582 c -0.3299,-4.58416 -3.75203,4.21099 0,0 z m 66.875,-2.5 c -3.36565,-5.03748 -2.94582,4.86674 0,0 z m -106.875,50 c 3.83306,-4.01898 0.39497,4.30718 0,0 z m 37.33279,-61.52056 c 0.72599,-7.36157 18.34152,3.79975 2.0155,0.52584 l -2.0155,-0.52584 0,0 z m 22.97971,0.6589 c -9.1252,-9.99309 20.36881,-0.94697 3.74702,0.70814 l -3.74702,-0.70822 0,8e-5 z M 161.25,327.3672 c 7.10814,-11.15187 -12.27206,-3.21742 1.35223,-12.7551 13.93293,-8.95128 37.10734,-38.91007 5.75001,-37.90237 C 129.89556,270.31119 89.429374,252.75066 70.921378,216.27005 60.615892,201.58713 56.95343,184.6539 51.686536,168.18407 44.558072,145.00549 9.3953562,173.36799 7.2660504,155.97634 c 2.9485026,-8.19357 12.4209356,-21.90267 5.7282406,-6.23003 10.932657,-5.01385 35.735246,-11.20784 34.18927,-2.33893 12.047097,-11.2745 -3.409288,-14.17065 -14.5692,-10.51899 4.599235,-3.72846 18.844405,-5.55815 4.2883,-11.22432 -9.338749,-2.35066 -21.245693,21.47833 -17.448419,1.00436 5.861696,2.06774 18.490469,-18.57329 28.247636,-23.36851 9.769701,1.24516 11.141774,17.9007 21.105706,4.28844 7.787873,-5.08038 4.570902,-11.021087 3.825312,-15.14903 6.279478,17.56736 28.184874,9.58602 43.393204,16.35561 3.49242,8.32294 -25.426394,-0.99488 -9.39809,11.13343 14.60182,6.36357 30.27824,12.99128 39.90464,26.21847 4.52109,16.55456 -12.29002,-0.81883 -17.75542,11.57479 -16.4461,4.33389 -25.90022,41.08764 -4.18823,35.50088 18.41964,0.018 7.53112,20.17599 26.56452,22.87609 20.23184,-1.74389 -22.44633,-7.40816 -5.52267,-17.93016 -5.73342,-4.9447 6.88716,-4.14044 -1.2301,-12.47276 -0.51378,-21.07428 19.99553,-7.37161 23.72987,2.45901 7.63331,-7.04617 27.116,13.26134 15.42833,-2.97135 6.58981,-8.85126 22.57568,4.4951 30.35236,-6.27495 19.32603,2.46745 36.74637,-2.4888 55.81507,1.77213 9.16924,0.071 21.70605,5.61701 15.46082,-3.75808 13.40952,3.51082 -1.68969,-11.6945 9.5003,-2.21291 8.64769,5.21807 8.17771,8.51809 2.08776,10.12945 7.06688,10.03866 25.86407,9.254 32.79399,17.67688 -10.37983,6.26738 -35.25191,1.52752 -38.13306,11.12108 12.51939,13.66983 19.89606,-3.07837 33.89394,-0.17147 7.25353,2.05608 -0.94539,-13.2078 11.90023,-8.02173 13.27274,1.00365 36.07889,-4.09974 44.26474,2.10722 -17.33561,4.75879 -34.75904,5.62596 -52.47327,7.01248 -12.9931,3.78332 -19.38962,27.60636 -31.94475,8.40327 -9.04809,-5.46924 -6.85466,22.10373 -14.03795,5.47399 -6.12979,-6.28884 6.13632,-12.4802 -7.63067,-14.71158 -17.26682,-11.70062 -40.43303,-4.75585 -60.10881,-4.54501 -12.78625,3.7785 -24.57328,11.05477 -34.22345,11.03764 -10.31937,14.38421 31.70103,9.22821 26.65145,18.42071 9.27981,0.15041 17.83802,8.26376 17.83982,12.83812 8.84739,-0.97804 34.29662,20.36022 14.51945,8.75437 2.47252,14.10254 17.71605,5.66771 14.4935,-3.77569 8.68106,2.19412 34.32655,-5.38675 14.43849,4.16307 -12.5191,6.45632 -25.10535,15.96558 -35.53398,4.84124 -9.72047,6.88384 -24.67854,12.06376 -29.2393,27.19058 -14.02926,12.09581 -27.693,25.8077 -42.59108,36.21257 l -0.40456,-1.49953 1e-5,1e-5 z M 225,194.03469 c -10.25232,-3.80983 -6.64392,6.30057 0,0 z m 58.75,-3.67552 c -7.49964,-3.32211 -25.5757,0.57148 -7.46903,0.95832 2.48893,-0.14241 5.16365,0.30153 7.46903,-0.95832 z m -51.25,-2.44074 c -6.95073,-5.07778 -8.66378,4.87262 0,0 z m -69.86697,-1.875 c -12.47094,-9.97387 -9.82587,6.30137 0,0 z m -29.50803,-38.125 c -3.77535,-5.146 -7.04802,4.7163 0,0 z m -88.144144,-24.0625 c -3.420336,-13.08002 -8.941999,6.88035 0,0 z m 37.1806,-9.19271 c -4.072013,-1.37757 -3.361664,2.32112 0,0 z m 5.338541,-0.49479 c -1.866182,-3.95025 -2.821031,4.2931 0,0 z m -13.75,-1.25 c -1.866182,-3.95025 -2.821031,4.2931 0,0 z m 42.500003,-8.125 c -18.47514,-11.959046 18.56911,3.88743 0,0 z M 66.249997,97.918432 c 3.365647,-5.037481 2.945819,4.866738 0,0 z"
     id="path4160"
     inkscape:connector-curvature="0" />
  <path
     style="fill:#646551"
     d="m 82.857789,389.48093 c 5.753172,-12.59439 7.162371,-30.02864 12.854561,-39.73493 -6.400142,9.70215 8.17654,14.92807 4.74677,1.11668 14.42392,-12.86053 34.27735,-7.77615 50.82547,-9.77755 14.90008,1.90734 35.12122,-16.75622 48.11962,-1.73997 7.16473,17.31598 15.84844,13.2285 20.03483,-2.94304 1.11416,-8.74709 23.43838,-6.21184 8.54297,-13.7059 10.7125,-2.62182 17.75867,16.25455 24.9556,2.16659 6.64852,12.84248 22.6802,4.53951 32.79219,16.17581 16.56699,2.55832 24.75183,17.98516 18.58662,32.4807 18.16822,10.07958 -1.08317,24.61047 -11.42756,16.0163 -10.46645,2.32568 -28.40429,2.09774 -42.57897,2.08892 -17.22006,-3.49622 -33.58049,2.76772 -51.75775,-1.20007 -3.83459,-10.54246 -7.1293,8.20921 -11.13735,-3.07838 -5.47314,8.9777 -28.57999,4.33736 -33.00321,0.60112 -19.22561,6.71825 -40.25369,2.5655 -60.272994,3.61178 -2.905238,-0.79451 -9.980471,1.31931 -11.280797,-2.07806 z M 303.125,380.31427 c -6.89484,-8.38897 -20.9375,5.36597 0,0 z m -116.25,-1.14584 c -6.45313,-4.79471 -2.65243,4.38389 0,0 z m -19.95751,-2.93573 c 9.47064,-7.59141 -19.75203,-9.55682 -5.88394,-15.15687 7.75452,3.08368 14.76609,12.32147 18.33473,14.78415 0.69619,-9.36669 1.56523,-38.76484 -12.8476,-31.41516 8.38845,1.60593 5.30477,24.12018 1.84658,11.59786 -6.69764,-18.30621 -27.86268,19.11457 -10.86726,18.75075 2.36701,-5.08394 3.14376,6.72359 9.41749,1.43927 z m 27.62037,-7.37677 c -5.08132,-18.26879 -6.37179,9.25502 0,0 z m -65.46572,-13.0675 c -8.17518,-19.363 -10.17657,9.66485 0.0381,7.61432 0.60959,-2.51212 0.35682,-5.1022 -0.0381,-7.61432 z m -14.6633,-0.42475 c -3.41051,-14.16573 -10.39166,3.95822 0,0 z m 32.8125,-7.85684 c -4.6402,-13.69021 -6.49703,15.68179 0,0 l 0,0 z m 94.73142,-5.96423 c -7.36625,-4.27561 -16.06197,12.19013 -1.92718,1.73734 l 1.92718,-1.73734 0,0 z m -50.07776,1.37582 c -0.3299,-4.58416 -3.75203,4.21099 0,0 z m 66.875,-2.5 c -3.36565,-5.03748 -2.94582,4.86674 0,0 z m -106.875,50 c 3.83306,-4.01898 0.39497,4.30718 0,0 z m 37.33279,-61.52056 c 0.72599,-7.36157 18.34152,3.79975 2.0155,0.52584 l -2.0155,-0.52584 0,0 z m 22.97971,0.6589 c -9.1252,-9.99309 20.36881,-0.94697 3.74702,0.70814 l -3.74702,-0.70822 0,8e-5 z M 161.25,327.3672 c 7.74894,-11.31801 -13.30416,-2.8991 1.28065,-12.68448 6.89279,-7.9498 16.3595,-14.64699 22.22995,-23.03839 3.67368,-13.28393 -1.77144,-24.93216 -18.00581,-20.48512 -15.67173,-0.35555 -40.42467,-9.69907 -28.1217,-26.58723 -22.52238,-7.19168 11.95778,-9.41527 18.63632,-1.25939 14.24393,10.17713 17.4676,-14.79861 28.07481,-0.46929 12.27455,5.93055 38.87646,7.65491 23.89996,27.10971 -10.94157,3.25792 10.44558,11.89798 -3.28826,20.74541 -13.53155,13.47476 -28.66404,25.3568 -42.91026,38.03938 l -1.39086,0.12893 -0.40456,-1.49953 -2.4e-4,0 z M 220,271.11759 c 4.47986,-5.46131 18.83147,-11.00357 9.36821,-0.4968 -2.98811,0.58384 -6.34571,1.5772 -9.36821,0.4968 z m -95.69662,-41.22196 c -5.89884,-7.77139 12.23873,5.62405 0,0 z m 185.66904,0.4036 c -8.96604,-4.21083 -16.93868,-13.4832 -23.56018,-0.5058 -6.04554,-8.87423 -3.68415,-20.83355 -19.09089,-23.20925 -26.0857,-3.57289 -52.52288,0.22698 -77.75284,6.75439 -20.1687,5.75078 -33.11333,-8.75547 -39.54995,-23.74635 -8.20237,-15.31109 8.69226,-21.46116 14.27005,-5.61535 3.93842,8.1041 17.06528,-0.62705 22.87133,8.68717 -3.67762,-4.91536 -4.72688,-15.79385 7.16444,-9.83229 15.11649,2.27975 27.28057,-8.50192 44.07103,-2.53552 13.89878,-6.38015 40.6086,5.26335 48.16709,0.6429 -7.92464,-5.93244 12.25864,-3.38373 3.43359,-9.48706 7.3446,4.24433 16.95396,12.1336 6.77918,13.38691 7.06688,10.03866 25.86407,9.254 32.79398,17.67688 -10.37983,6.26738 -35.25192,1.52752 -38.13305,11.12108 12.51939,13.66983 19.89606,-3.07838 33.89394,-0.17147 7.25353,2.05608 -0.94539,-13.2078 11.90023,-8.02173 13.27274,1.00365 36.07887,-4.09974 44.26474,2.10722 -17.33562,4.75878 -34.75904,5.62596 -52.47328,7.01248 -11.06658,2.52994 -11.69294,11.09771 -19.04941,15.73579 z M 225,194.03469 c -10.25232,-3.80983 -6.64392,6.30057 0,0 z m 58.75,-3.67552 c -7.49964,-3.32211 -25.5757,0.57148 -7.46903,0.95832 2.48893,-0.14241 5.16365,0.30153 7.46903,-0.95832 z m -51.25,-2.44074 c -6.95073,-5.07778 -8.66378,4.87262 0,0 z m -69.86697,-1.875 c -12.47094,-9.97387 -9.82587,6.30137 0,0 z m -46.38303,37.5 c -1.63247,-6.19028 7.25039,6.20473 0,0 z M 79.277894,209.89542 C 62.345683,198.89713 60.022072,175.77454 46.406261,161.9847 35.427402,150.25622 -3.5768002,175.55435 10.342406,148.92783 c 8.955891,-11.77691 1.68689,-4.59002 4.538438,0.71752 10.426428,-6.15749 34.141242,-10.35264 32.302717,-2.23797 12.047097,-11.2745 -3.409288,-14.17065 -14.5692,-10.51899 4.409549,-3.25176 18.508383,-5.47374 4.770435,-10.9137 -12.319825,0.45549 6.963863,-10.4247 4.863641,-14.8709 0.763242,5.96376 -4.404674,21.66895 4.861202,8.92361 1.311025,-19.63042 9.673789,12.42612 19.61635,-5.85674 6.605594,-5.63821 8.572053,-17.31326 5.906912,-21.73133 6.279479,17.56736 28.184879,9.58602 43.393209,16.35561 3.49242,8.32295 -25.426401,-0.99488 -9.39809,11.13343 13.50452,6.37828 29.57957,11.78342 38.07664,24.84298 4.39687,4.96064 2.00846,15.50289 -5.13935,7.05694 -18.07008,3.25499 -31.08322,20.66142 -36.28862,37.74914 -2.95352,10.66554 -9.624762,27.37396 -23.998796,20.31799 z M 133.125,147.91843 c -3.77535,-5.146 -7.04802,4.7163 0,0 z M 82.161456,114.66322 c -4.072013,-1.37757 -3.361664,2.32112 0,0 z m 5.338541,-0.49479 c -1.866182,-3.95025 -2.821031,4.2931 0,0 z m -13.75,-1.25 c -1.866182,-3.95025 -2.821031,4.2931 0,0 z m -55,22.20074 c 4.897459,-8.16598 16.781997,-11.28877 3.559671,-0.78956 0.358266,-0.57209 -3.396543,2.76851 -3.559671,0.78956 z M 116.25,104.79343 c -18.47514,-11.959046 18.56911,3.88743 0,0 z"
     id="path4158"
     inkscape:connector-curvature="0" />
  <path
     style="fill:#1b191b"
     d="m 84.999997,390.34466 c 2.541289,-2.74332 2.830096,4.18283 0,0 z m 3.925027,-2.46145 c -1.257414,-16.93434 14.101806,-0.0173 1.515343,2.87714 l -1.515343,-2.87715 0,1e-5 z m 7.324973,2.53522 c 8.477073,-8.52859 21.177513,-18.18326 26.377153,-25.3125 -2.71237,6.91441 5.38459,24.66246 -2.61475,26.5625 -7.43829,-3.29327 -14.91352,0.49966 -23.762403,-1.25 z M 113.75,384.30217 c -5.28082,-6.885 -6.24797,4.71697 0,0 z m 19.46882,4.31247 c -0.94709,-8.43489 -10.91837,-6.77124 -2.76624,-16.22992 11.26885,-6.76541 -7.77256,-34.76054 -4.48688,-27.71902 15.96999,-7.85138 10.98498,12.73951 14.0254,13.31002 12.56645,-7.3723 7.18098,-0.38829 2.77493,6.12339 4.65807,6.94218 10.38074,8.60408 1.48284,13.43527 -0.65416,3.19238 -9.39881,22.40444 -11.03005,11.08026 z m 8.94784,1.64868 c 7.29907,-4.03453 -3.31977,4.29898 0,0 z m 21.05809,0.31556 c 12.2326,3.01022 2.11758,-16.41685 10.65358,-6.4574 23.5098,-9.02928 2.76754,15.93608 -10.65358,6.4574 z M 190,390.41843 c 3.36565,-5.03748 2.94582,4.86674 0,0 z m 21.25,0.1331 c 9.42801,-9.90888 -34.70694,-9.35058 -7.96522,-12.30075 4.6161,-5.67512 -7.71865,-24.60571 9.09508,-23.09974 1.14951,-8.22096 15.712,-25.26888 14.98319,-7.94957 -4.72551,10.35527 24.13389,4.42795 14.76373,-2.56182 10.11642,-0.34312 18.19474,0.0383 23.86015,-10.84269 13.45447,2.21059 18.05532,13.96249 28.48862,22.38737 6.5316,5.53775 -6.48084,-13.19357 5.97231,-4.20711 9.21035,19.15645 -9.37531,25.50161 -24.44736,23.68795 -14.75429,0.67668 12.94707,21.54617 -3.40181,14.44076 -8.12136,3.86664 -12.93376,1.35293 -13.68516,-4.37735 -1.32312,8.93605 -19.78658,4.00106 -5.27172,3.4895 -2.57747,-11.72455 -26.06935,-0.46428 -27.53294,2.06472 -4.90573,0.0317 -10.15748,1.0482 -14.85887,-0.73127 z m 21.28618,-16.6956 c 7.35506,-12.14728 -14.65931,-17.20933 -15.2048,-8.87701 12.85938,-5.71547 7.72725,18.54551 15.2048,8.87701 z m 65.58882,14.72625 c 5.25239,-7.53828 16.31409,-6.85141 8.53822,2.96465 -2.03101,-4.81086 -19.88295,5.347 -8.53822,-2.96465 z m -11.18401,-5.55699 c 0.23899,-6.74186 5.63934,2.88533 0,0 z m -188.607659,-2.1901 c -2.78069,-11.0275 12.260229,1.92774 0,0 z m 90.992189,-1.96984 c -11.10703,-2.9659 -6.72315,-19.68359 -3.7625,-24.32337 -2.95517,5.82036 11.86997,26.13992 3.7625,24.32337 z M 186.25,351.66843 c 2.99362,-4.99395 1.99351,4.64869 0,0 z m -72.52507,-3.15521 c -1.85197,-9.92226 8.75644,6.3532 0,0 z m 40.29626,-2.0521 c 7.9929,-7.42576 5.85646,4.88561 0,0 z m 28.57332,-4.0538 c -12.5409,-2.05917 -8.27457,-4.98123 1.98059,-6.21344 4.08952,1.00622 2.38481,11.36033 -1.98059,6.21344 z m 47.0686,-4.07639 c -8.83382,-9.04291 20.11447,0.66622 2.90339,1.36887 l -2.90339,-1.36887 z m 16.58689,-1.1209 c 1.70863,-13.09902 13.93714,-9.53858 6.77276,1.19966 -1.86075,0.61908 -6.20079,1.83814 -6.77276,-1.19966 z m -9.375,-8.0416 c 0.32989,-4.58416 3.75202,4.21098 0,0 z M 173.75,310.57737 c 3.04751,-9.06209 16.66677,-14.23688 13.45055,-24.87212 0.94198,-24.90267 -33.17963,-8.77913 -46.36652,-21.94757 -11.82457,-7.04168 3.92496,-22.29182 -10.75,-24.1709 15.6885,-8.04344 38.2407,16.24979 48.00474,-2.09033 11.63284,12.15544 51.10261,11.39546 28.43906,34.34492 7.24861,9.02213 -11.42997,29.0727 -24.71248,36.04498 -1.35878,0.19965 -7.31823,6.25201 -8.06535,2.69102 z M 225,267.91843 c 3.36565,-5.03748 2.94582,4.86674 0,0 z m -100.69662,-38.0228 c -5.89884,-7.77139 12.23873,5.62405 0,0 z m 179.02996,-4.06054 c -3.36107,-6.43954 4.58666,1.46934 0,0 z M 116.25,223.54343 c -1.63247,-6.19028 7.25039,6.20473 0,0 z M 285,218.01776 c -8.23947,-13.94099 -29.69075,-13.0206 -44.91696,-12.66267 -21.29389,-1.8542 -39.26897,7.29554 -59.88618,8.4622 -17.93861,5.60091 -30.54608,-22.80169 -26.16872,-27.84474 7.93121,-1.90076 19.08009,14.49926 16.1553,1.75299 8.13619,-1.91637 25.25143,12.49913 16.26492,-3.17112 4.51584,-1.66821 5.06168,5.11086 10.96042,0.24354 4.15542,7.50403 12.53519,-0.94604 18.18358,-0.55742 -11.60854,-10.16167 19.76227,-1.79191 25.22733,-3.524 14.50269,0.49024 43.52274,1.33549 49.14303,5.71038 -22.30846,0.65039 -44.66936,-1.02765 -66.94468,0.41457 7.0647,7.54138 34.23296,8.26075 32.8153,9.82694 -6.54235,4.32374 13.7264,2.26718 15.52649,-0.7271 18.2353,3.39341 38.37537,2.35295 55.72554,6.40916 -11.78966,5.52932 -30.61609,2.21798 -38.59097,8.9529 9.7492,5.04065 0.59441,15.17696 -3.4944,6.71437 z m -53.78928,-20.41183 c -4.37315,-11.72999 -26.51001,-1.0899 -6.21072,0.22559 1.28067,-0.045 5.94215,2.84088 6.21072,-0.22559 z M 79.313026,209.91018 C 59.991582,198.64755 61.439528,171.39914 44.287463,158.57852 30.944553,153.18165 54.88711,147.6654 57.506418,140.47379 c 3.219087,6.02127 18.815276,12.36701 8.68184,1.19464 -5.289812,-3.6247 2.495461,-9.13135 -9.667778,-6.05866 -13.51362,-1.33168 -3.399421,-8.53822 -5.365915,-12.78677 -8.361836,-5.37271 2.227399,-16.86411 1.77281,-4.90457 7.193596,6.8972 27.933014,-2.17772 22.083071,-12.62363 10.998493,-2.50109 34.654754,1.4024 38.078674,6.06708 -26.418239,-8.85789 -2.13246,28.02342 11.74699,18.39903 9.78933,0.0165 27.67662,23.72158 10.14259,16.86772 -5.39454,0.53358 -14.25172,-17.41257 -13.9197,-7.62912 19.28553,14.67031 -13.5264,25.34459 -14.2893,41.93385 -5.66157,11.37831 -8.793799,36.99858 -27.456674,28.97682 z m 10.686971,-93.16246 c 0.626771,-11.80971 -22.590809,-1.68257 -5.503929,0.6628 2.843353,2.53356 5.444647,6.412 5.503929,-0.6628 z M 339.375,210.82524 c -18.55087,-6.39458 41.77229,-7.58899 16.37043,-0.007 -5.39336,0.93212 -10.98624,1.11281 -16.37043,0.007 z m -182.5,-28.81529 c -15.95028,-8.71082 12.52425,-5.81415 2.92383,0.43209 L 156.875,182.00995 Z M 8.7499972,159.02735 c 1.2109385,-14.38669 46.2067698,-20.8866 22.3413538,-5.24224 -6.182745,4.08635 -15.165471,7.4659 -22.3413538,5.24224 z M 39.999997,113.54343 c 2.704133,-9.75907 4.70823,10.65514 0,0 z"
     id="path4156"
     inkscape:connector-curvature="0" />
</svg>
